<svg width="660" height="518" viewBox="0 0 660 518" fill="none" xmlns="http://www.w3.org/2000/svg">
<path d="M264.014 113.26C264.014 113.26 311.029 115.869 325.919 124.552C325.919 124.552 323.81 147.42 322.736 168.705L322.303 172.114C327.01 174.238 331.545 176.725 335.865 179.554C335.865 179.554 339.642 183.209 341.064 191.346C343.558 197.339 346.531 203.122 349.955 208.638C354.033 207.913 358.265 207.096 362.65 206.189L363.102 192.599C351.565 189.726 355.992 187.362 355.992 187.362L357.254 187.033C359.225 186.514 361.266 186.311 363.3 186.43L363.31 186.053L365.221 127.594C365.221 127.594 293.37 96.7875 264.014 113.26ZM351.669 136.966L348.542 136.881C346.451 136.815 344.37 136.683 342.279 136.551C340.197 136.391 338.116 136.231 336.044 136.005C333.962 135.779 331.881 135.543 329.819 135.204C331.909 135.157 334 135.214 336.091 135.28C338.182 135.345 340.263 135.477 342.345 135.609C344.426 135.769 346.517 135.929 348.589 136.156L351.706 136.504C352.742 136.655 353.778 136.777 354.814 136.956C353.769 136.994 352.724 136.966 351.669 136.966ZM355.464 142.428C354.409 142.456 353.364 142.428 352.319 142.437L349.182 142.343C347.091 142.287 345.01 142.155 342.929 142.014C340.847 141.863 338.766 141.703 336.684 141.467C334.612 141.251 332.531 141.006 330.459 140.667C332.559 140.62 334.65 140.676 336.741 140.752C338.822 140.808 340.913 140.94 342.995 141.081C345.076 141.232 347.157 141.392 349.239 141.628L352.347 141.976C353.383 142.127 354.428 142.24 355.464 142.428ZM335.507 149.313C338.012 149.492 340.508 149.746 343.004 150C345.5 150.273 347.996 150.556 350.482 150.904L354.202 151.441C355.445 151.648 356.689 151.827 357.922 152.072C356.66 152.044 355.408 151.959 354.155 151.903L350.397 151.63C347.892 151.451 345.396 151.196 342.9 150.933C340.414 150.66 337.918 150.377 335.432 150.029C332.945 149.68 330.459 149.322 327.982 148.87C330.497 148.936 333.002 149.115 335.507 149.313ZM355.003 178.217C354.796 180.544 354.862 182.888 354.814 185.215C354.748 187.541 354.626 189.858 354.617 192.147C354.607 192.721 354.607 193.286 354.617 193.832C354.635 194.106 354.635 194.322 354.664 194.614L354.748 195.509C354.86 196.246 354.776 197 354.504 197.694C354.304 198.112 353.986 198.462 353.59 198.702C353.261 198.894 352.901 199.028 352.526 199.097C351.302 199.282 350.059 199.289 348.834 199.116C347.666 198.975 346.498 198.796 345.34 198.589C345.316 198.584 345.295 198.571 345.281 198.552C345.267 198.533 345.261 198.509 345.264 198.485C345.269 198.464 345.279 198.445 345.294 198.43C345.309 198.415 345.328 198.405 345.349 198.4C346.517 198.249 347.685 198.137 348.853 198.052C349.951 197.999 351.04 197.829 352.102 197.543C352.573 197.364 352.827 197.185 352.855 196.978C352.925 196.556 352.918 196.126 352.837 195.707L352.705 194.869C352.658 194.586 352.629 194.219 352.601 193.908C352.592 193.296 352.592 192.693 352.61 192.099C352.742 189.726 352.978 187.409 353.289 185.083C353.628 182.851 354.099 180.638 354.391 178.406C353.073 178.061 351.707 177.94 350.35 178.048C349.646 178.094 348.947 178.198 348.259 178.358C347.911 178.434 347.591 178.537 347.242 178.631C346.85 178.735 346.45 178.808 346.046 178.848C344.503 178.95 342.955 178.784 341.469 178.358C340.011 177.979 338.597 177.449 337.249 176.776L337.183 176.748C337.048 176.65 336.899 176.574 336.741 176.522C336.609 176.477 336.466 176.481 336.336 176.531C336.183 176.61 336.063 176.74 335.997 176.899C335.903 177.087 335.833 177.286 335.79 177.492L335.78 177.501C335.778 177.513 335.773 177.525 335.766 177.535C335.759 177.546 335.75 177.554 335.739 177.56C335.728 177.567 335.716 177.571 335.704 177.572C335.691 177.573 335.679 177.571 335.667 177.567C335.649 177.564 335.633 177.555 335.621 177.541C335.609 177.527 335.602 177.51 335.601 177.492C335.57 177.251 335.566 177.008 335.592 176.767C335.637 176.488 335.769 176.232 335.968 176.032C336.208 175.832 336.514 175.731 336.825 175.75C337.088 175.751 337.347 175.805 337.588 175.91C338.982 176.258 340.395 176.588 341.798 176.833C343.164 177.096 344.551 177.228 345.942 177.228C346.281 177.238 346.592 177.181 346.922 177.162C347.298 177.125 347.694 177.059 348.08 177.059C348.844 177.03 349.609 177.058 350.369 177.143C351.858 177.312 353.336 177.567 354.795 177.906C354.86 177.922 354.917 177.96 354.956 178.013C354.996 178.066 355.016 178.132 355.012 178.198L355.003 178.217ZM353.797 169.251L350.039 169.411C347.544 169.524 345.038 169.552 342.533 169.581C340.028 169.59 337.532 169.599 335.027 169.534C332.522 169.477 330.016 169.411 327.511 169.232C330.016 169.015 332.512 168.912 335.017 168.808C337.523 168.705 340.028 168.677 342.524 168.639C345.029 168.629 347.534 168.62 350.039 168.686L353.797 168.789C355.05 168.855 356.302 168.893 357.555 168.987C356.302 169.11 355.05 169.166 353.797 169.251ZM355.201 166.275L352.064 166.19C349.973 166.124 347.892 165.992 345.811 165.86C343.729 165.7 341.638 165.54 339.566 165.314C337.485 165.088 335.413 164.853 333.341 164.514C335.441 164.467 337.532 164.523 339.613 164.589C341.704 164.655 343.786 164.787 345.877 164.919C347.958 165.079 350.039 165.239 352.111 165.465L355.229 165.813C356.265 165.964 357.301 166.086 358.337 166.265C357.291 166.303 356.246 166.275 355.201 166.275ZM332.691 159.042C334.791 158.995 336.882 159.051 338.973 159.126C341.064 159.183 343.145 159.315 345.227 159.456C347.308 159.607 349.389 159.767 351.471 160.002L354.588 160.351C355.624 160.501 356.66 160.624 357.696 160.803C356.642 160.831 355.596 160.803 354.551 160.812L351.414 160.718C349.333 160.662 347.242 160.53 345.161 160.388C343.079 160.238 340.998 160.078 338.917 159.842C336.845 159.626 334.763 159.39 332.691 159.042ZM355.634 156.31L352.498 156.226C350.407 156.169 348.325 156.028 346.234 155.896C344.153 155.736 342.072 155.576 340 155.35C337.918 155.124 335.846 154.888 333.774 154.549C335.865 154.502 337.956 154.559 340.047 154.625C342.138 154.69 344.219 154.822 346.3 154.954C348.391 155.114 350.473 155.274 352.545 155.5L355.662 155.858C356.698 156.009 357.734 156.122 358.77 156.301C357.725 156.339 356.679 156.31 355.634 156.31ZM356.99 147.307L353.854 147.222C351.763 147.165 349.682 147.024 347.6 146.892C345.519 146.732 343.437 146.572 341.356 146.346C339.274 146.12 337.203 145.884 335.13 145.545C337.231 145.498 339.322 145.555 341.403 145.621C343.494 145.687 345.575 145.819 347.666 145.95C349.747 146.111 351.829 146.271 353.901 146.497L357.018 146.855C358.054 147.005 359.1 147.118 360.126 147.297C359.081 147.335 358.036 147.307 356.99 147.307ZM357.706 132.784L353.948 132.511C351.443 132.332 348.947 132.077 346.451 131.814C343.965 131.541 341.469 131.258 338.982 130.909C336.496 130.561 334.01 130.203 331.533 129.751C334.047 129.817 336.553 129.996 339.058 130.194C341.563 130.373 344.059 130.627 346.555 130.881C349.05 131.164 351.546 131.437 354.023 131.795L357.753 132.322C358.996 132.529 360.239 132.709 361.473 132.953C360.211 132.925 358.958 132.84 357.706 132.784ZM320.702 207.545C320.245 206.061 319.414 204.719 318.291 203.646L317.97 206.189C293.577 212.358 279.865 213.215 272.613 212.829C281.918 214.034 300.311 215.231 328.236 211.887C325.599 211.84 321.135 210.032 320.702 207.545ZM323.461 180.864C323.461 180.864 322.585 180.346 321.361 179.545L321.191 180.892C321.945 180.805 322.706 180.796 323.461 180.864Z" fill="black"/>
<path d="M265.417 211.573C266.642 211.467 267.873 211.448 269.101 211.517C270.307 211.559 271.498 211.676 272.686 211.828C272.942 211.861 273.176 211.992 273.337 212.194C273.499 212.395 273.576 212.652 273.552 212.909C273.528 213.166 273.405 213.404 273.209 213.573C273.013 213.741 272.759 213.827 272.501 213.812C271.256 213.754 270.021 213.558 268.819 213.227C268.21 213.064 267.614 212.853 267.037 212.596C266.448 212.341 265.901 211.996 265.417 211.573ZM265.417 211.573C266.683 211.65 267.861 211.645 269.054 211.687C270.243 211.708 271.424 211.755 272.611 211.821L272.426 213.805C271.213 213.649 270.014 213.394 268.842 213.045C267.638 212.715 266.485 212.219 265.417 211.573Z" fill="black"/>
<path d="M395.322 139.377C395.617 141.959 395.868 144.529 396.226 147.061C396.411 148.323 396.601 149.585 396.895 150.797C397.026 151.394 397.194 151.982 397.399 152.558C397.493 152.83 397.606 153.096 397.737 153.353L397.946 153.842C398.033 154.028 398.099 154.222 398.145 154.422C398.334 155.187 398.318 155.988 398.098 156.744C397.915 157.438 397.629 158.1 397.248 158.708C396.533 159.852 395.68 160.905 394.71 161.843C394.473 162.075 394.236 162.305 393.991 162.526L393.623 162.856L393.437 163.019C393.394 163.056 393.353 163.096 393.315 163.139C393.167 163.323 393.094 163.555 393.11 163.791C393.144 164.058 393.253 164.31 393.423 164.518C394.064 165.574 395.09 166.338 396.286 166.65C396.329 166.659 396.371 166.678 396.406 166.706C396.442 166.733 396.47 166.768 396.49 166.809L396.498 166.825C397.535 168.923 398.759 170.925 400.155 172.805C401.487 174.666 403.02 176.376 404.725 177.903C405.528 178.605 406.452 179.153 407.453 179.52C407.906 179.679 408.385 179.756 408.865 179.748C409.094 179.745 409.323 179.722 409.548 179.68C409.794 179.639 410.096 179.559 410.367 179.5C411.459 179.252 412.532 178.925 413.577 178.524C414.06 178.337 414.521 178.1 414.954 177.816C415.136 177.697 415.304 177.557 415.453 177.399C415.509 177.344 415.558 177.284 415.6 177.218L415.635 177.165C415.641 177.185 415.635 177.102 415.638 177.3L417.103 176.474C418.061 177.23 418.925 178.099 419.674 179.063C420.421 179.991 421.061 181.001 421.582 182.073C422.65 184.169 423.235 186.478 423.295 188.831C423.296 188.854 423.288 188.878 423.273 188.896C423.258 188.914 423.237 188.926 423.213 188.93C423.19 188.933 423.166 188.928 423.146 188.915C423.126 188.902 423.112 188.883 423.105 188.86L423.104 188.854C422.841 187.754 422.487 186.678 422.045 185.638C421.625 184.61 421.103 183.626 420.487 182.702C419.881 181.785 419.198 180.923 418.444 180.124C417.717 179.341 416.912 178.635 416.042 178.016L417.507 177.191C417.514 177.383 417.486 177.575 417.425 177.757C417.387 177.878 417.339 177.995 417.28 178.107C417.182 178.301 417.062 178.483 416.921 178.65C416.68 178.935 416.405 179.189 416.102 179.406C415.563 179.793 414.984 180.121 414.375 180.383C413.235 180.874 412.048 181.25 410.833 181.504C410.527 181.568 410.258 181.641 409.923 181.698C409.567 181.761 409.206 181.786 408.845 181.771C408.144 181.752 407.451 181.611 406.797 181.355C405.593 180.863 404.491 180.152 403.546 179.258C401.777 177.575 400.283 175.626 399.117 173.481C397.947 171.402 396.886 169.263 395.938 167.074L396.15 167.248C394.822 166.867 393.673 166.028 392.905 164.881C392.651 164.595 392.48 164.246 392.41 163.871C392.352 163.456 392.448 163.035 392.68 162.686C392.737 162.598 392.801 162.515 392.872 162.438L393.031 162.259L393.345 161.899C393.554 161.659 393.752 161.411 393.95 161.164C394.733 160.196 395.399 159.139 395.934 158.014C396.453 157.048 396.643 155.938 396.475 154.854C396.449 154.739 396.408 154.627 396.353 154.522L396.287 154.358L396.18 154.119C396.027 153.795 395.896 153.461 395.788 153.119C395.578 152.469 395.41 151.807 395.283 151.136C395.051 149.833 394.905 148.516 394.845 147.194C394.706 144.584 394.801 141.967 395.129 139.374C395.131 139.361 395.135 139.349 395.141 139.338C395.148 139.327 395.156 139.317 395.166 139.309C395.176 139.302 395.188 139.296 395.2 139.292C395.212 139.289 395.225 139.288 395.238 139.29C395.259 139.293 395.28 139.303 395.295 139.319C395.31 139.335 395.32 139.355 395.322 139.377Z" fill="#020202"/>
<path d="M423.199 164.703C423.387 165.645 423.403 166.613 423.247 167.561C423.102 168.521 422.81 169.454 422.38 170.326C421.947 171.206 421.348 171.996 420.616 172.65C419.898 173.302 419.041 173.782 418.11 174.052C418.823 173.471 419.48 172.827 420.075 172.126C420.643 171.442 421.128 170.692 421.518 169.893C422.3 168.243 422.865 166.498 423.199 164.703Z" fill="#020202"/>
<path d="M425.761 160.527C433.049 177.67 452.649 182.57 454.675 153.575C455.964 135.12 439.878 119.623 427.717 120.438C424.64 120.147 421.536 120.306 418.505 120.912C414.34 121.796 410.379 123.455 406.828 125.803C402.422 128.526 398.524 131.997 395.31 136.059C394.937 139.549 395.713 143.065 397.519 146.074C400.8 151.38 406.395 152.991 409.507 153.48C410.564 153.665 411.651 153.575 412.664 153.218C413.677 152.862 414.581 152.251 415.29 151.445C415.791 150.851 416.168 150.164 416.399 149.422C416.684 148.336 417.187 147.319 417.877 146.433C418.566 145.546 419.428 144.809 420.411 144.265C422.84 143.063 425.812 143.426 427.223 150.734C428.396 156.816 427.309 159.459 425.761 160.527Z" fill="#020202"/>
<path d="M315.471 267.179C318.77 266.623 322.098 266.257 325.438 266.082C328.76 265.861 332.082 265.785 335.403 265.789C338.724 265.801 342.045 265.897 345.366 266.136C348.706 266.329 352.032 266.716 355.327 267.295C352.029 267.854 348.701 268.222 345.36 268.396C342.038 268.615 338.716 268.692 335.394 268.684C332.073 268.669 328.752 268.573 325.431 268.333C322.091 268.139 318.766 267.754 315.471 267.179Z" fill="#020202"/>
<path d="M350.078 258.906C344.761 259.152 339.445 259.336 334.127 259.517L326.151 259.795L322.163 259.922C320.889 259.931 319.618 260.058 318.368 260.304C315.892 260.796 313.535 261.765 311.428 263.156L309.821 264.271C309.316 264.618 308.834 264.997 308.377 265.406C307.489 266.22 306.726 267.16 306.112 268.197C305.507 269.232 305.059 270.351 304.782 271.517C304.646 272.097 304.554 272.688 304.508 273.282C304.472 273.578 304.481 273.877 304.467 274.174L304.465 275.161L304.441 283.138L304.364 299.092L304.213 315.045C304.121 325.68 303.94 336.315 303.67 346.948L303.194 362.896L303.071 366.883C303.055 367.54 303.019 368.231 303.02 368.858C303.01 369.462 303.047 370.065 303.129 370.663C303.45 373.089 304.497 375.361 306.135 377.18C306.963 378.085 307.914 378.87 308.96 379.512C310.028 380.128 311.176 380.595 312.372 380.899C313.616 381.157 314.884 381.286 316.154 381.286L320.137 381.431C325.45 381.577 330.764 381.702 336.079 381.745C357.339 381.936 378.581 381.268 399.805 379.743C410.403 378.988 420.981 378.021 431.536 376.922C434.176 376.656 436.808 376.322 439.443 376.026C442.083 375.737 444.705 375.393 447.321 375.037L451.249 374.518L452.232 374.393L452.723 374.33C452.761 374.328 452.799 374.32 452.834 374.307L453.004 374.262C453.521 374.109 454.02 373.901 454.494 373.643C455.458 373.12 456.311 372.415 457.007 371.568C457.699 370.695 458.23 369.707 458.576 368.649C458.925 367.533 459.125 366.376 459.171 365.208C459.218 364.605 459.219 364 459.175 363.397L459.12 362.481L459.093 362.021L459.049 361.499C458.821 358.727 458.779 356.066 458.745 353.374C458.706 348.009 458.836 342.663 459.072 337.321C459.543 326.639 460.538 315.991 461.888 305.389C464.561 284.155 469.293 263.231 476.018 242.913C479.414 232.762 483.597 222.893 488.53 213.394C489.727 211.003 491.072 208.689 492.403 206.372C493.788 204.148 494.96 201.799 495.903 199.355C496.808 196.898 497.421 194.343 497.729 191.743C497.891 190.463 497.842 189.165 497.584 187.901C497.479 187.283 497.217 186.702 496.822 186.215C496.427 185.728 495.913 185.352 495.33 185.122L495.316 185.117C495.268 185.1 495.229 185.064 495.207 185.018C495.185 184.971 495.182 184.918 495.2 184.87C495.217 184.822 495.253 184.783 495.299 184.761C495.345 184.739 495.398 184.736 495.446 184.753C496.127 184.958 496.738 185.349 497.209 185.882C497.665 186.421 497.999 187.052 498.189 187.731C498.552 189.057 498.685 190.436 498.582 191.807C498.396 194.507 497.892 197.176 497.082 199.759C496.233 202.326 495.145 204.808 493.832 207.171C492.643 209.537 491.369 211.853 490.278 214.266C487.957 219.019 485.973 223.93 484.039 228.848C482.197 233.806 480.456 238.798 478.889 243.849C475.737 253.948 473.128 264.21 471.074 274.588C470.021 279.772 469.091 284.981 468.216 290.198C467.374 295.422 466.626 300.66 465.973 305.912C465.333 311.165 464.719 316.422 464.253 321.694C463.783 326.965 463.395 332.241 463.091 337.524C462.792 342.804 462.6 348.092 462.572 353.363C462.572 355.987 462.587 358.649 462.765 361.18C463.108 364.079 462.853 367.018 462.016 369.815C461.514 371.283 460.753 372.649 459.77 373.849C458.761 375.05 457.527 376.043 456.138 376.771C455.438 377.14 454.7 377.433 453.938 377.645L453.625 377.723C453.5 377.754 453.374 377.777 453.247 377.793L452.748 377.851L451.751 377.967L447.761 378.415C445.1 378.719 442.442 379.009 439.79 379.242C437.135 379.483 434.483 379.762 431.827 379.971L423.857 380.601L415.88 381.091C413.222 381.263 410.561 381.38 407.902 381.507C405.242 381.633 402.583 381.769 399.921 381.853C389.282 382.323 378.637 382.494 367.997 382.695C357.357 382.865 346.716 382.966 336.075 382.997L320.112 383.018L316.119 383.014C314.73 383.059 313.339 382.962 311.97 382.724C309.144 382.152 306.56 380.73 304.565 378.648C302.037 376.009 300.595 372.516 300.523 368.862C300.5 368.16 300.513 367.522 300.506 366.849L300.493 362.86L300.457 346.904C300.489 336.268 300.601 325.633 300.795 314.999L301.085 299.048L301.448 283.097L301.644 275.122L301.676 274.115C301.7 273.749 301.705 273.381 301.757 273.017C301.835 272.288 301.969 271.565 302.157 270.856C302.91 268.013 304.506 265.465 306.736 263.547C307.283 263.084 307.859 262.656 308.461 262.265C309.022 261.9 309.553 261.536 310.168 261.161C312.571 259.702 315.233 258.724 318.008 258.28C319.379 258.065 320.767 257.978 322.154 258.019L326.142 258.073L334.118 258.204C339.436 258.287 344.755 258.373 350.074 258.52C350.124 258.522 350.171 258.542 350.207 258.578C350.242 258.614 350.261 258.662 350.262 258.712C350.262 258.762 350.243 258.81 350.209 258.846C350.175 258.883 350.128 258.904 350.078 258.906Z" fill="#020202"/>
<path d="M400.212 258.262C402.313 257.685 404.46 257.286 406.628 257.07C408.768 256.838 410.909 256.72 413.052 256.699C415.194 256.677 417.337 256.757 419.481 256.95C421.653 257.126 423.806 257.488 425.917 258.03C423.816 258.611 421.67 259.011 419.501 259.227C417.361 259.458 415.22 259.577 413.078 259.594C410.936 259.611 408.793 259.532 406.649 259.339C404.477 259.161 402.323 258.801 400.212 258.262Z" fill="#020202"/>
<path d="M455.782 375.015C456.151 378.032 456.313 381.049 456.434 384.066C456.54 387.083 456.602 390.1 456.489 393.117C456.351 396.134 456.07 399.151 455.999 402.168C455.993 402.922 455.969 403.676 455.98 404.43C455.984 404.806 455.992 405.178 455.967 405.591C455.927 405.993 455.842 406.389 455.715 406.773C455.448 407.558 454.991 408.265 454.384 408.83C453.777 409.395 453.039 409.801 452.236 410.011C450.95 410.342 449.585 410.157 448.433 409.495C447.282 408.833 446.435 407.747 446.073 406.468C445.947 406.035 445.878 405.588 445.867 405.137L445.842 404.003C445.775 400.986 445.694 397.969 445.72 394.952C445.802 388.918 446.044 382.884 446.653 376.85C446.655 376.826 446.667 376.804 446.684 376.788C446.702 376.772 446.725 376.763 446.749 376.763C446.774 376.763 446.797 376.772 446.815 376.788C446.832 376.804 446.844 376.826 446.846 376.85C447.455 382.884 447.697 388.918 447.779 394.952C447.805 397.969 447.724 400.986 447.658 404.003L447.634 405.131C447.63 405.435 447.662 405.739 447.727 406.036C447.863 406.64 448.146 407.201 448.551 407.67C448.969 408.149 449.496 408.523 450.087 408.758C450.705 408.986 451.369 409.061 452.022 408.976C452.702 408.874 453.343 408.596 453.883 408.169C454.423 407.743 454.842 407.184 455.1 406.547C455.349 405.871 455.449 405.148 455.392 404.43C455.402 403.676 455.378 402.922 455.373 402.168C455.302 399.151 455.021 396.134 454.882 393.117C454.77 390.1 454.831 387.083 454.938 384.066C455.058 381.049 455.221 378.032 455.589 375.015C455.592 374.992 455.604 374.97 455.621 374.954C455.639 374.938 455.662 374.93 455.686 374.93C455.71 374.93 455.733 374.938 455.75 374.954C455.768 374.97 455.779 374.992 455.782 375.015Z" fill="#020202"/>
<path d="M318.032 381.77C318.401 384.346 318.563 386.922 318.684 389.498C318.79 392.073 318.851 394.649 318.739 397.225C318.601 399.801 318.32 402.376 318.249 404.952C318.255 405.64 318.122 406.322 317.858 406.957C317.593 407.592 317.202 408.167 316.708 408.646C316.19 409.152 315.568 409.541 314.886 409.786C314.204 410.031 313.477 410.127 312.755 410.066C312.033 410.005 311.332 409.79 310.701 409.435C310.069 409.08 309.521 408.593 309.094 408.007C308.646 407.386 308.344 406.672 308.21 405.918C308.126 405.236 308.086 404.549 308.091 403.861C308.025 401.286 307.944 398.71 307.97 396.134C308.016 390.97 308.327 385.812 308.903 380.679C308.906 380.656 308.917 380.634 308.935 380.618C308.953 380.602 308.976 380.594 308.999 380.594C309.023 380.594 309.046 380.602 309.064 380.618C309.082 380.634 309.093 380.656 309.096 380.679C309.672 385.811 309.983 390.97 310.029 396.134C310.055 398.71 309.974 401.286 309.907 403.861C309.898 404.497 309.852 405.197 309.9 405.662C310.019 406.667 310.525 407.585 311.311 408.222C312.097 408.859 313.1 409.163 314.108 409.07C315.115 408.978 316.046 408.495 316.703 407.726C317.359 406.957 317.689 405.961 317.623 404.952C317.552 402.376 317.271 399.801 317.132 397.225C317.02 394.649 317.081 392.073 317.188 389.498C317.308 386.922 317.471 384.346 317.839 381.77C317.842 381.747 317.854 381.726 317.872 381.71C317.89 381.695 317.912 381.687 317.936 381.687C317.959 381.687 317.982 381.695 318 381.71C318.017 381.726 318.029 381.747 318.032 381.77Z" fill="#020202"/>
<path d="M363.322 186.406C365.238 186.601 367.156 186.906 369 186.965L368.951 186.963L370.109 186.901C370.286 186.891 370.459 186.951 370.591 187.068C370.724 187.185 370.804 187.35 370.815 187.527C370.826 187.703 370.767 187.877 370.65 188.01C370.533 188.143 370.369 188.224 370.192 188.235C369.764 188.263 369.329 188.284 368.893 188.291C368.854 188.291 368.815 188.286 368.778 188.274L368.722 188.256C367.709 187.937 366.673 187.69 365.625 187.518C364.582 187.361 363.53 187.268 362.476 187.238C361.421 187.207 360.365 187.236 359.313 187.323C358.238 187.435 357.171 187.607 356.115 187.837L356.222 187.795C356.066 187.858 355.927 187.954 355.813 188.077C355.699 188.2 355.613 188.347 355.562 188.506C355.49 188.795 355.75 189.154 356.036 189.463C356.748 190.059 357.558 190.527 358.43 190.844C358.878 191.003 359.316 191.182 359.771 191.323L361.146 191.712C362.078 191.918 363.012 192.128 363.944 192.295C364.016 192.308 364.083 192.34 364.139 192.387L364.186 192.428C365.247 193.316 366.369 194.129 367.544 194.859C368.689 195.595 369.894 196.233 371.146 196.766C372.334 197.285 373.612 197.565 374.908 197.59C376.11 197.608 377.283 197.229 378.248 196.512L378.277 196.49C378.439 196.37 378.635 196.303 378.838 196.299C379.04 196.294 379.238 196.353 379.406 196.467C380.546 197.246 381.7 198.003 382.828 198.8C383.962 199.588 385.089 200.388 386.208 201.199C387.33 202.006 388.426 202.852 389.537 203.677C390.641 204.512 391.729 205.37 392.802 206.253C392.82 206.268 392.832 206.288 392.835 206.312C392.839 206.335 392.834 206.358 392.821 206.378C392.808 206.397 392.789 206.411 392.766 206.417C392.744 206.424 392.72 206.421 392.699 206.411C391.456 205.79 390.229 205.145 389.018 204.475C387.813 203.796 386.594 203.139 385.401 202.442C384.203 201.752 383.014 201.048 381.835 200.33C380.648 199.623 379.487 198.876 378.312 198.151L379.469 198.106C378.156 199.115 376.529 199.626 374.875 199.55C373.335 199.457 371.828 199.06 370.441 198.383C369.108 197.758 367.85 196.983 366.691 196.075C365.547 195.18 364.475 194.195 363.487 193.131L363.729 193.263C362.789 192.994 361.875 192.67 360.95 192.378C360.033 192.06 359.116 191.744 358.212 191.377C357.279 191.024 356.399 190.544 355.596 189.952C355.358 189.777 355.161 189.552 355.019 189.292C354.878 189.033 354.795 188.745 354.776 188.45C354.788 188.123 354.902 187.808 355.101 187.548C355.281 187.304 355.505 187.095 355.761 186.932C355.774 186.924 355.788 186.917 355.803 186.912L355.868 186.89C356.924 186.509 358.002 186.19 359.096 185.934C360.215 185.682 361.358 185.557 362.505 185.563C364.793 185.579 367.058 186.028 369.179 186.886L369.008 186.851C369.345 186.858 369.682 186.879 370.026 186.906L370.109 188.241L368.951 188.179L368.901 188.176C367.929 188.026 366.97 187.807 366.029 187.522C365.097 187.25 364.18 186.939 363.277 186.589C363.256 186.58 363.238 186.564 363.228 186.544C363.217 186.524 363.214 186.5 363.22 186.478C363.225 186.455 363.238 186.436 363.257 186.422C363.276 186.409 363.299 186.403 363.322 186.406Z" fill="#020202"/>
<path d="M363.523 179.578C367.238 179.852 370.899 180.616 374.413 181.851C377.941 183.01 381.395 184.387 384.753 185.973C388.101 187.567 391.388 189.28 394.572 191.17C397.776 193.03 400.862 195.084 403.814 197.322C400.468 195.729 397.171 194.092 393.873 192.463C390.569 190.849 387.278 189.224 383.954 187.678C380.648 186.091 377.289 184.635 373.91 183.227C370.53 181.787 367.061 180.569 363.523 179.578Z" fill="#020202"/>
<path d="M221.99 293.392C223.101 294.588 224.222 295.794 225.352 296.971C225.766 295.408 226.228 293.853 226.661 292.281C225.107 292.676 223.55 293.047 221.99 293.392ZM226.068 297.724C227.264 298.986 228.469 300.258 229.694 301.501L230.052 301.859C230.372 300.164 230.72 298.468 231.078 296.773C229.402 297.093 227.744 297.404 226.068 297.724ZM230.711 302.528C232.35 304.176 233.998 305.805 235.684 307.397L236.145 304.006L236.541 300.738C234.591 301.322 232.66 301.944 230.711 302.528ZM235.994 307.698C236.663 308.32 237.341 308.951 238.038 309.563C239.14 310.58 240.28 311.569 241.429 312.53C241.542 310.147 241.674 307.77 241.824 305.4C239.875 306.163 237.935 306.917 235.994 307.698ZM248.04 310.25C246.091 311.23 244.132 312.181 242.182 313.161C243.742 314.446 245.367 315.65 247.051 316.768C247.39 317.003 247.729 317.22 248.078 317.427L248.04 310.25ZM254.897 312.775C252.909 314.489 250.885 316.156 248.878 317.851C248.862 317.863 248.842 317.869 248.822 317.87C249.875 318.489 250.981 319.012 252.128 319.433C253.084 319.816 254.102 320.021 255.132 320.036C255.819 320.037 256.501 319.919 257.148 319.687C256.375 317.38 255.631 315.082 254.897 312.775ZM221.99 293.392C223.101 294.588 224.222 295.794 225.352 296.971C225.766 295.408 226.228 293.853 226.661 292.281C225.107 292.676 223.55 293.047 221.99 293.392ZM226.068 297.724C227.264 298.986 228.469 300.258 229.694 301.501L230.052 301.859C230.372 300.164 230.72 298.468 231.078 296.773C229.402 297.093 227.744 297.404 226.068 297.724ZM230.711 302.528C232.35 304.176 233.998 305.805 235.684 307.397L236.145 304.006L236.541 300.738C234.591 301.322 232.66 301.944 230.711 302.528ZM235.994 307.698C236.663 308.32 237.341 308.951 238.038 309.563C239.14 310.58 240.28 311.569 241.429 312.53C241.542 310.147 241.674 307.77 241.824 305.4C239.875 306.163 237.935 306.917 235.994 307.698ZM248.04 310.25C246.091 311.23 244.132 312.181 242.182 313.161C243.742 314.446 245.367 315.65 247.051 316.768C247.39 317.003 247.729 317.22 248.078 317.427L248.04 310.25ZM254.897 312.775C252.909 314.489 250.885 316.156 248.878 317.851C248.862 317.863 248.842 317.869 248.822 317.87C249.875 318.489 250.981 319.012 252.128 319.433C253.084 319.816 254.102 320.021 255.132 320.036C255.819 320.037 256.501 319.919 257.148 319.687C256.375 317.38 255.631 315.082 254.897 312.775ZM221.99 293.392C223.101 294.588 224.222 295.794 225.352 296.971C225.766 295.408 226.228 293.853 226.661 292.281C225.107 292.676 223.55 293.047 221.99 293.392ZM226.068 297.724C227.264 298.986 228.469 300.258 229.694 301.501L230.052 301.859C230.372 300.164 230.72 298.468 231.078 296.773C229.402 297.093 227.744 297.404 226.068 297.724ZM230.711 302.528C232.35 304.176 233.998 305.805 235.684 307.397L236.145 304.006L236.541 300.738C234.591 301.322 232.66 301.944 230.711 302.528ZM235.994 307.698C236.663 308.32 237.341 308.951 238.038 309.563C239.14 310.58 240.28 311.569 241.429 312.53C241.542 310.147 241.674 307.77 241.824 305.4C239.875 306.163 237.935 306.917 235.994 307.698ZM248.04 310.25C246.091 311.23 244.132 312.181 242.182 313.161C243.742 314.446 245.367 315.65 247.051 316.768C247.39 317.003 247.729 317.22 248.078 317.427L248.04 310.25ZM254.897 312.775C252.909 314.489 250.885 316.156 248.878 317.851C248.862 317.863 248.842 317.869 248.822 317.87C249.875 318.489 250.981 319.012 252.128 319.433C253.084 319.816 254.102 320.021 255.132 320.036C255.819 320.037 256.501 319.919 257.148 319.687C256.375 317.38 255.631 315.082 254.897 312.775ZM221.99 293.392C223.101 294.588 224.222 295.794 225.352 296.971C225.766 295.408 226.228 293.853 226.661 292.281C225.107 292.676 223.55 293.047 221.99 293.392ZM226.068 297.724C227.264 298.986 228.469 300.258 229.694 301.501L230.052 301.859C230.372 300.164 230.72 298.468 231.078 296.773C229.402 297.093 227.744 297.404 226.068 297.724ZM230.711 302.528C232.35 304.176 233.998 305.805 235.684 307.397L236.145 304.006L236.541 300.738C234.591 301.322 232.66 301.944 230.711 302.528ZM235.994 307.698C236.663 308.32 237.341 308.951 238.038 309.563C239.14 310.58 240.28 311.569 241.429 312.53C241.542 310.147 241.674 307.77 241.824 305.4C239.875 306.163 237.935 306.917 235.994 307.698ZM248.04 310.25C246.091 311.23 244.132 312.181 242.182 313.161C243.742 314.446 245.367 315.65 247.051 316.768C247.39 317.003 247.729 317.22 248.078 317.427L248.04 310.25ZM254.897 312.775C252.909 314.489 250.885 316.156 248.878 317.851C248.862 317.863 248.842 317.869 248.822 317.87C249.875 318.489 250.981 319.012 252.128 319.433C253.084 319.816 254.102 320.021 255.132 320.036C255.819 320.037 256.501 319.919 257.148 319.687C256.375 317.38 255.631 315.082 254.897 312.775ZM221.99 293.392C223.101 294.588 224.222 295.794 225.352 296.971C225.766 295.408 226.228 293.853 226.661 292.281C225.107 292.676 223.55 293.047 221.99 293.392ZM226.068 297.724C227.264 298.986 228.469 300.258 229.694 301.501L230.052 301.859C230.372 300.164 230.72 298.468 231.078 296.773C229.402 297.093 227.744 297.404 226.068 297.724ZM230.711 302.528C232.35 304.176 233.998 305.805 235.684 307.397L236.145 304.006L236.541 300.738C234.591 301.322 232.66 301.944 230.711 302.528ZM235.994 307.698C236.663 308.32 237.341 308.951 238.038 309.563C239.14 310.58 240.28 311.569 241.429 312.53C241.542 310.147 241.674 307.77 241.824 305.4C239.875 306.163 237.935 306.917 235.994 307.698ZM248.04 310.25C246.091 311.23 244.132 312.181 242.182 313.161C243.742 314.446 245.367 315.65 247.051 316.768C247.39 317.003 247.729 317.22 248.078 317.427L248.04 310.25ZM254.897 312.775C252.909 314.489 250.885 316.156 248.878 317.851C248.862 317.863 248.842 317.869 248.822 317.87C249.875 318.489 250.981 319.012 252.128 319.433C253.084 319.816 254.102 320.021 255.132 320.036C255.819 320.037 256.501 319.919 257.148 319.687C256.375 317.38 255.631 315.082 254.897 312.775ZM221.99 293.392C223.101 294.588 224.222 295.794 225.352 296.971C225.766 295.408 226.228 293.853 226.661 292.281C225.107 292.676 223.55 293.047 221.99 293.392ZM226.068 297.724C227.264 298.986 228.469 300.258 229.694 301.501L230.052 301.859C230.372 300.164 230.72 298.468 231.078 296.773C229.402 297.093 227.744 297.404 226.068 297.724ZM230.711 302.528C232.35 304.176 233.998 305.805 235.684 307.397L236.145 304.006L236.541 300.738C234.591 301.322 232.66 301.944 230.711 302.528ZM235.994 307.698C236.663 308.32 237.341 308.951 238.038 309.563C239.14 310.58 240.28 311.569 241.429 312.53C241.542 310.147 241.674 307.77 241.824 305.4C239.875 306.163 237.935 306.917 235.994 307.698ZM248.04 310.25C246.091 311.23 244.132 312.181 242.182 313.161C243.742 314.446 245.367 315.65 247.051 316.768C247.39 317.003 247.729 317.22 248.078 317.427L248.04 310.25ZM254.897 312.775C252.909 314.489 250.885 316.156 248.878 317.851C248.862 317.863 248.842 317.869 248.822 317.87C249.875 318.489 250.981 319.012 252.128 319.433C253.084 319.816 254.102 320.021 255.132 320.036C255.819 320.037 256.501 319.919 257.148 319.687C256.375 317.38 255.631 315.082 254.897 312.775ZM221.99 293.392C223.101 294.588 224.222 295.794 225.352 296.971C225.766 295.408 226.228 293.853 226.661 292.281C225.107 292.676 223.55 293.047 221.99 293.392ZM226.068 297.724C227.264 298.986 228.469 300.258 229.694 301.501L230.052 301.859C230.372 300.164 230.72 298.468 231.078 296.773C229.402 297.093 227.744 297.404 226.068 297.724ZM230.711 302.528C232.35 304.176 233.998 305.805 235.684 307.397L236.145 304.006L236.541 300.738C234.591 301.322 232.66 301.944 230.711 302.528ZM235.994 307.698C236.663 308.32 237.341 308.951 238.038 309.563C239.14 310.58 240.28 311.569 241.429 312.53C241.542 310.147 241.674 307.77 241.824 305.4C239.875 306.163 237.935 306.917 235.994 307.698ZM248.04 310.25C246.091 311.23 244.132 312.181 242.182 313.161C243.742 314.446 245.367 315.65 247.051 316.768C247.39 317.003 247.729 317.22 248.078 317.427L248.04 310.25ZM254.897 312.775C252.909 314.489 250.885 316.156 248.878 317.851C248.862 317.863 248.842 317.869 248.822 317.87C249.875 318.489 250.981 319.012 252.128 319.433C253.084 319.816 254.102 320.021 255.132 320.036C255.819 320.037 256.501 319.919 257.148 319.687C256.375 317.38 255.631 315.082 254.897 312.775ZM221.99 293.392C223.101 294.588 224.222 295.794 225.352 296.971C225.766 295.408 226.228 293.853 226.661 292.281C225.107 292.676 223.55 293.047 221.99 293.392ZM226.068 297.724C227.264 298.986 228.469 300.258 229.694 301.501L230.052 301.859C230.372 300.164 230.72 298.468 231.078 296.773C229.402 297.093 227.744 297.404 226.068 297.724ZM230.711 302.528C232.35 304.176 233.998 305.805 235.684 307.397L236.145 304.006L236.541 300.738C234.591 301.322 232.66 301.944 230.711 302.528ZM235.994 307.698C236.663 308.32 237.341 308.951 238.038 309.563C239.14 310.58 240.28 311.569 241.429 312.53C241.542 310.147 241.674 307.77 241.824 305.4C239.875 306.163 237.935 306.917 235.994 307.698ZM248.04 310.25C246.091 311.23 244.132 312.181 242.182 313.161C243.742 314.446 245.367 315.65 247.051 316.768C247.39 317.003 247.729 317.22 248.078 317.427L248.04 310.25ZM254.897 312.775C252.909 314.489 250.885 316.156 248.878 317.851C248.862 317.863 248.842 317.869 248.822 317.87C249.875 318.489 250.981 319.012 252.128 319.433C253.084 319.816 254.102 320.021 255.132 320.036C255.819 320.037 256.501 319.919 257.148 319.687C256.375 317.38 255.631 315.082 254.897 312.775ZM258.494 339.23C257.373 340.587 256.262 341.934 255.132 343.271C256.865 343.723 258.598 344.137 260.359 344.486C259.719 342.743 259.106 340.992 258.494 339.23ZM266.151 342.536L265.04 339.654C263.825 341.34 262.6 343.017 261.376 344.702C263.222 345.089 265.068 345.428 266.933 345.71C267.102 345.729 267.272 345.748 267.451 345.776C267.009 344.702 266.565 343.62 266.151 342.536ZM271.51 339.485C270.427 341.604 269.4 343.761 268.355 345.908C270.587 346.228 272.838 346.492 275.079 346.671C273.912 344.269 272.734 341.858 271.51 339.485ZM279.892 340.502L275.739 346.737C276.935 346.822 278.131 346.897 279.327 346.925C280.561 346.972 281.795 346.972 283.028 346.963L279.892 340.502ZM287.888 340.267C286.673 342.499 285.439 344.712 284.206 346.925C286.726 346.852 289.24 346.651 291.74 346.322C291.81 346.314 291.879 346.301 291.947 346.285C290.563 344.288 289.244 342.273 287.888 340.267ZM296.185 338.543C295.112 341.076 294.01 343.582 292.917 346.106C294.571 345.847 296.204 345.473 297.805 344.985C299.277 344.62 300.717 344.135 302.11 343.535L302.119 342.537C300.132 341.218 298.154 339.887 296.185 338.543ZM345.198 241.913L306.979 214.656C302.746 211.82 297.922 209.987 292.875 209.295C287.827 208.603 282.688 209.071 277.848 210.663C270.766 213.083 263.316 218.282 257.637 228.783C257.637 228.783 232.65 276.166 221.688 293.063C221.763 293.138 221.848 293.232 221.914 293.308C221.915 293.308 221.916 293.307 221.917 293.307C221.919 293.306 221.92 293.306 221.92 293.305C221.921 293.304 221.922 293.303 221.922 293.302C221.923 293.3 221.923 293.299 221.923 293.298C223.6 292.733 225.279 292.193 226.962 291.678C226.995 291.666 227.029 291.661 227.064 291.663C227.099 291.665 227.133 291.674 227.164 291.69C227.195 291.706 227.223 291.728 227.245 291.755C227.267 291.783 227.282 291.814 227.291 291.848C227.301 291.891 227.301 291.936 227.291 291.98V291.998C226.915 293.628 226.557 295.266 226.152 296.905C227.96 296.519 229.762 296.142 231.558 295.775C231.674 295.752 231.794 295.776 231.893 295.841C231.992 295.906 232.061 296.008 232.085 296.123C232.095 296.186 232.095 296.249 232.085 296.312C231.671 298.139 231.275 299.966 230.823 301.793C232.773 301.294 234.751 300.823 236.71 300.305C236.733 300.299 236.758 300.297 236.782 300.3C236.806 300.303 236.829 300.311 236.85 300.323C236.872 300.336 236.89 300.352 236.905 300.372C236.919 300.391 236.93 300.413 236.936 300.437C236.943 300.458 236.947 300.481 236.945 300.503L236.446 304.044L236.05 307.275C238.066 306.399 240.066 305.507 242.05 304.6C242.129 304.564 242.218 304.561 242.299 304.591C242.381 304.621 242.447 304.682 242.483 304.76C242.501 304.802 242.511 304.846 242.511 304.892V304.911C242.483 307.284 242.433 309.651 242.361 312.012C244.348 310.986 246.335 309.94 248.322 308.932C248.448 308.869 248.593 308.857 248.726 308.899C248.86 308.942 248.972 309.035 249.038 309.158C249.076 309.234 249.095 309.318 249.095 309.403L249.057 316.467C250.988 314.96 252.909 313.444 254.849 311.965L254.868 311.955C254.901 311.929 254.939 311.909 254.98 311.898C255.021 311.887 255.064 311.883 255.106 311.889C255.148 311.894 255.189 311.907 255.225 311.929C255.262 311.95 255.294 311.978 255.32 312.012C255.341 312.047 255.357 312.085 255.367 312.125C256.017 314.621 256.642 317.126 257.241 319.641C257.392 319.586 257.54 319.523 257.684 319.452C256.026 320.564 253.832 320.451 251.977 319.904C250.103 319.3 248.313 318.465 246.646 317.418C243.346 315.328 240.241 312.945 237.369 310.298C234.515 307.642 231.746 304.901 229.137 302.019C226.623 299.241 224.202 296.387 221.933 293.392C221.914 293.383 221.895 293.383 221.895 293.364C221.895 293.355 221.904 293.355 221.904 293.345C221.838 293.251 221.754 293.166 221.688 293.063C219.55 296.369 217.949 298.507 217.167 298.902C217.167 298.902 238.462 327.533 256.931 330.848C257.533 323.578 258.287 316.307 259.361 309.074C260.397 301.84 261.658 294.626 263.222 287.478C264.718 280.297 266.71 273.229 269.184 266.324C270.426 262.851 271.98 259.497 273.827 256.304C274.782 254.71 275.944 253.25 277.283 251.962C277.968 251.317 278.766 250.806 279.638 250.455C280.066 250.268 280.533 250.184 280.999 250.212C281.466 250.24 281.919 250.378 282.322 250.615C281.915 250.428 281.469 250.338 281.021 250.355C280.572 250.371 280.134 250.493 279.741 250.709C278.952 251.122 278.241 251.67 277.641 252.329C276.45 253.673 275.446 255.171 274.656 256.784C273.034 260.015 271.676 263.373 270.596 266.824C269.476 270.261 268.487 273.765 267.601 277.278C266.688 280.8 265.84 284.332 265.106 287.892C263.523 294.993 262.177 302.151 260.849 309.309L256.931 330.848L254.68 343.167C254.793 343.195 254.906 343.214 255.019 343.243C256.121 341.679 257.242 340.125 258.381 338.562C258.422 338.51 258.481 338.476 258.546 338.467C258.611 338.458 258.677 338.475 258.73 338.515C258.771 338.543 258.803 338.582 258.824 338.628V338.637C259.53 340.398 260.256 342.169 260.953 343.939C262.234 342.112 263.505 340.276 264.805 338.468C264.873 338.371 264.976 338.305 265.092 338.283C265.209 338.262 265.329 338.288 265.426 338.354C265.493 338.412 265.547 338.483 265.586 338.562L266.933 342.244C267.291 343.233 267.63 344.231 267.979 345.239C269.109 343.167 270.258 341.095 271.35 339.004C271.371 338.962 271.407 338.93 271.451 338.914C271.495 338.898 271.543 338.9 271.586 338.92C271.614 338.948 271.642 338.976 271.671 339.004C272.876 341.519 274.138 343.986 275.419 346.464L279.629 339.541C279.681 339.455 279.764 339.394 279.861 339.369C279.958 339.344 280.061 339.359 280.147 339.409C280.198 339.453 280.243 339.503 280.279 339.56L280.288 339.569L283.603 346.002C284.856 343.676 286.099 341.33 287.39 339.014L287.399 339.004C287.431 338.945 287.474 338.892 287.527 338.849C287.579 338.807 287.64 338.776 287.705 338.757C287.77 338.739 287.838 338.733 287.906 338.742C287.973 338.75 288.037 338.772 288.096 338.806C288.172 338.842 288.235 338.902 288.275 338.976C289.631 341.029 290.997 343.073 292.334 345.135C293.474 342.734 294.585 340.323 295.753 337.94V337.912C295.795 337.839 295.863 337.785 295.943 337.76C296.024 337.736 296.111 337.743 296.186 337.78C296.2 337.791 296.216 337.801 296.233 337.808C298.211 339.287 300.17 340.784 302.129 342.291L302.233 334.663C302.055 334.74 301.862 334.779 301.667 334.775C301.28 334.761 300.914 334.596 300.645 334.317C300.376 334.038 300.226 333.665 300.226 333.278C300.226 332.891 300.376 332.518 300.645 332.239C300.914 331.96 301.28 331.795 301.667 331.781C301.875 331.773 302.082 331.815 302.27 331.903L303.061 274.245C303.061 274.245 302.534 263.565 315.738 259.882L357.075 260.231C357.075 260.231 350.058 250.21 345.198 241.913ZM227.226 289.051C226.837 289.039 226.469 288.876 226.199 288.598C225.929 288.319 225.777 287.946 225.777 287.558C225.777 287.17 225.929 286.797 226.199 286.518C226.469 286.239 226.837 286.077 227.226 286.065C227.613 286.078 227.98 286.241 228.249 286.519C228.518 286.798 228.669 287.17 228.669 287.557C228.669 287.945 228.519 288.317 228.249 288.596C227.98 288.874 227.613 289.037 227.226 289.051ZM231.049 294.08C230.662 294.065 230.296 293.901 230.027 293.621C229.758 293.342 229.608 292.97 229.608 292.582C229.608 292.195 229.758 291.822 230.027 291.543C230.296 291.264 230.662 291.1 231.049 291.085C231.436 291.101 231.801 291.265 232.069 291.544C232.337 291.823 232.487 292.195 232.487 292.582C232.487 292.969 232.337 293.341 232.07 293.62C231.802 293.899 231.436 294.064 231.049 294.08ZM236.917 298.506C236.53 298.493 236.164 298.33 235.895 298.051C235.626 297.773 235.476 297.401 235.476 297.014C235.476 296.627 235.626 296.255 235.895 295.976C236.164 295.698 236.53 295.534 236.917 295.521C237.303 295.535 237.668 295.699 237.936 295.977C238.204 296.256 238.354 296.627 238.354 297.013C238.354 297.4 238.204 297.771 237.937 298.049C237.669 298.328 237.303 298.492 236.917 298.506ZM242.427 302.82C242.038 302.807 241.67 302.643 241.4 302.364C241.13 302.085 240.978 301.711 240.978 301.322C240.978 300.934 241.13 300.56 241.4 300.281C241.67 300.001 242.038 299.838 242.427 299.825C242.814 299.839 243.181 300.003 243.451 300.282C243.72 300.561 243.871 300.934 243.871 301.322C243.871 301.71 243.72 302.083 243.451 302.362C243.182 302.641 242.814 302.806 242.427 302.82ZM248.407 306.644C248.02 306.63 247.654 306.467 247.385 306.188C247.116 305.91 246.966 305.538 246.966 305.151C246.966 304.764 247.116 304.392 247.385 304.113C247.654 303.835 248.02 303.672 248.407 303.658C248.793 303.673 249.159 303.836 249.426 304.115C249.694 304.393 249.844 304.764 249.844 305.15C249.844 305.537 249.695 305.908 249.427 306.187C249.159 306.465 248.793 306.629 248.407 306.644ZM255.471 309.761C255.082 309.748 254.714 309.584 254.444 309.305C254.174 309.026 254.023 308.652 254.023 308.263C254.023 307.875 254.174 307.501 254.444 307.222C254.714 306.943 255.082 306.779 255.471 306.766C255.858 306.78 256.225 306.944 256.495 307.223C256.764 307.502 256.915 307.875 256.915 308.263C256.915 308.651 256.764 309.024 256.495 309.303C256.226 309.582 255.858 309.747 255.471 309.761ZM220.539 299.109C220.164 299.096 219.809 298.938 219.549 298.668C219.289 298.398 219.143 298.038 219.143 297.663C219.143 297.289 219.289 296.928 219.549 296.659C219.809 296.389 220.164 296.231 220.539 296.218C220.913 296.232 221.266 296.39 221.526 296.66C221.785 296.929 221.93 297.289 221.93 297.663C221.93 298.037 221.785 298.397 221.526 298.666C221.267 298.936 220.912 299.095 220.539 299.109ZM225.634 304.901C225.259 304.889 224.903 304.731 224.642 304.461C224.381 304.192 224.235 303.831 224.235 303.456C224.235 303.08 224.381 302.72 224.642 302.45C224.903 302.18 225.259 302.022 225.634 302.01C226.008 302.023 226.363 302.181 226.623 302.451C226.883 302.721 227.028 303.081 227.028 303.455C227.029 303.83 226.883 304.19 226.623 304.459C226.363 304.729 226.008 304.888 225.634 304.901ZM230.965 310.458C230.59 310.445 230.235 310.287 229.975 310.017C229.715 309.747 229.569 309.387 229.569 309.012C229.569 308.638 229.715 308.277 229.975 308.008C230.235 307.738 230.59 307.58 230.965 307.567C231.338 307.581 231.692 307.739 231.952 308.009C232.211 308.278 232.356 308.638 232.356 309.012C232.356 309.386 232.211 309.746 231.952 310.015C231.693 310.285 231.338 310.444 230.965 310.458ZM236.757 316.721C236.381 316.708 236.024 316.55 235.762 316.279C235.501 316.009 235.354 315.647 235.354 315.271C235.354 314.894 235.501 314.533 235.762 314.262C236.024 313.991 236.381 313.833 236.757 313.82C237.132 313.834 237.488 313.993 237.748 314.263C238.009 314.534 238.155 314.895 238.155 315.27C238.155 315.646 238.009 316.007 237.749 316.278C237.488 316.548 237.132 316.707 236.757 316.721ZM242.549 321.816C242.173 321.804 241.816 321.645 241.555 321.375C241.293 321.104 241.147 320.742 241.147 320.366C241.147 319.99 241.293 319.628 241.555 319.357C241.816 319.087 242.173 318.928 242.549 318.916C242.924 318.929 243.28 319.088 243.541 319.359C243.801 319.629 243.947 319.99 243.947 320.366C243.947 320.741 243.802 321.102 243.541 321.373C243.28 321.643 242.924 321.803 242.549 321.816ZM248.803 325.518C248.427 325.506 248.07 325.349 247.808 325.079C247.547 324.809 247.4 324.448 247.4 324.072C247.4 323.696 247.547 323.335 247.808 323.065C248.07 322.795 248.427 322.638 248.803 322.626C249.178 322.639 249.533 322.797 249.794 323.066C250.055 323.336 250.201 323.696 250.201 324.072C250.201 324.447 250.055 324.807 249.794 325.077C249.534 325.347 249.178 325.505 248.803 325.518ZM255.056 328.306C254.68 328.293 254.323 328.134 254.062 327.864C253.8 327.593 253.654 327.232 253.654 326.855C253.654 326.479 253.8 326.117 254.062 325.846C254.323 325.576 254.68 325.417 255.056 325.405C255.431 325.419 255.787 325.577 256.047 325.848C256.308 326.118 256.454 326.479 256.454 326.855C256.454 327.23 256.308 327.591 256.048 327.862C255.787 328.132 255.431 328.292 255.056 328.306ZM259.059 334.776C258.672 334.761 258.305 334.597 258.037 334.317C257.768 334.038 257.618 333.666 257.618 333.278C257.618 332.891 257.768 332.518 258.037 332.239C258.305 331.96 258.672 331.796 259.059 331.781C259.445 331.797 259.811 331.961 260.078 332.24C260.346 332.519 260.496 332.891 260.496 333.278C260.496 333.665 260.347 334.036 260.079 334.315C259.811 334.595 259.445 334.76 259.059 334.776ZM266.716 336.207C266.329 336.193 265.963 336.03 265.695 335.751C265.426 335.473 265.276 335.101 265.276 334.715C265.276 334.328 265.426 333.956 265.695 333.678C265.963 333.399 266.329 333.236 266.716 333.222C267.102 333.236 267.467 333.4 267.735 333.678C268.003 333.957 268.153 334.328 268.153 334.714C268.153 335.1 268.003 335.472 267.736 335.75C267.468 336.028 267.102 336.192 266.716 336.207ZM275.578 337.168C275.19 337.155 274.822 336.991 274.552 336.712C274.281 336.433 274.13 336.059 274.13 335.67C274.13 335.282 274.281 334.908 274.552 334.629C274.822 334.35 275.19 334.186 275.578 334.173C275.966 334.187 276.333 334.351 276.603 334.63C276.872 334.909 277.022 335.282 277.022 335.67C277.023 336.058 276.872 336.431 276.603 336.71C276.334 336.989 275.966 337.154 275.578 337.168ZM285.392 337.046C285.004 337.034 284.636 336.871 284.366 336.593C284.095 336.314 283.944 335.941 283.944 335.553C283.944 335.165 284.095 334.792 284.366 334.513C284.636 334.234 285.004 334.072 285.392 334.06C285.779 334.073 286.147 334.236 286.416 334.514C286.686 334.793 286.836 335.165 286.836 335.552C286.836 335.94 286.686 336.312 286.417 336.591C286.147 336.869 285.779 337.033 285.392 337.046ZM294.245 335.972C293.858 335.957 293.492 335.793 293.223 335.513C292.954 335.234 292.804 334.862 292.804 334.474C292.804 334.087 292.954 333.714 293.223 333.435C293.492 333.156 293.858 332.992 294.245 332.977C294.632 332.993 294.997 333.157 295.265 333.436C295.533 333.715 295.683 334.087 295.683 334.474C295.683 334.861 295.533 335.233 295.266 335.512C294.998 335.791 294.632 335.956 294.245 335.972ZM292.917 346.106C294.571 345.847 296.204 345.473 297.805 344.985C299.277 344.62 300.717 344.135 302.11 343.535L302.119 342.537C300.132 341.218 298.154 339.887 296.185 338.543C295.112 341.076 294.01 343.582 292.917 346.106ZM284.206 346.925C286.726 346.852 289.24 346.651 291.74 346.322C291.81 346.314 291.879 346.301 291.947 346.285C290.563 344.288 289.244 342.273 287.888 340.267C286.673 342.499 285.439 344.712 284.206 346.925ZM275.739 346.737C276.935 346.822 278.131 346.897 279.327 346.925C280.561 346.972 281.795 346.972 283.028 346.963L279.892 340.502L275.739 346.737ZM268.355 345.908C270.587 346.228 272.838 346.492 275.079 346.671C273.912 344.269 272.734 341.858 271.51 339.485C270.427 341.604 269.4 343.761 268.355 345.908ZM265.04 339.654C263.825 341.34 262.6 343.017 261.376 344.702C263.222 345.089 265.068 345.428 266.933 345.71C267.102 345.729 267.272 345.748 267.451 345.776C267.009 344.702 266.565 343.62 266.151 342.536L265.04 339.654ZM255.132 343.271C256.865 343.723 258.598 344.137 260.359 344.486C259.719 342.743 259.106 340.992 258.494 339.23C257.373 340.587 256.262 341.934 255.132 343.271ZM255.132 320.036C255.819 320.037 256.501 319.919 257.148 319.687C256.375 317.38 255.631 315.082 254.897 312.775C252.909 314.489 250.885 316.156 248.878 317.851C248.862 317.863 248.842 317.869 248.822 317.87C249.875 318.489 250.981 319.012 252.128 319.433C253.084 319.816 254.102 320.021 255.132 320.036ZM248.078 317.427L248.04 310.25C246.091 311.23 244.132 312.181 242.182 313.161C243.742 314.446 245.367 315.65 247.051 316.768C247.39 317.003 247.729 317.22 248.078 317.427ZM238.038 309.563C239.14 310.58 240.28 311.569 241.429 312.53C241.542 310.147 241.674 307.77 241.824 305.4C239.875 306.163 237.935 306.917 235.994 307.698C236.663 308.32 237.341 308.951 238.038 309.563ZM235.684 307.397L236.145 304.006L236.541 300.738C234.591 301.322 232.66 301.944 230.711 302.528C232.35 304.176 233.998 305.805 235.684 307.397ZM229.694 301.501L230.052 301.859C230.372 300.164 230.72 298.468 231.078 296.773C229.402 297.093 227.744 297.404 226.068 297.724C227.264 298.986 228.469 300.258 229.694 301.501ZM226.661 292.281C225.107 292.676 223.55 293.047 221.99 293.392C223.101 294.588 224.222 295.794 225.352 296.971C225.766 295.408 226.228 293.853 226.661 292.281ZM296.185 338.543C295.112 341.076 294.01 343.582 292.917 346.106C294.571 345.847 296.204 345.473 297.805 344.985C299.277 344.62 300.717 344.135 302.11 343.535L302.119 342.537C300.132 341.218 298.154 339.887 296.185 338.543ZM297.956 345.447C295.965 346.131 293.929 346.679 291.862 347.085C287.71 347.76 283.503 348.04 279.298 347.923C275.102 347.742 270.925 347.251 266.801 346.454C264.832 346.078 262.883 345.625 260.942 345.117C260.89 345.13 260.836 345.133 260.782 345.125C260.729 345.116 260.678 345.098 260.632 345.07C260.622 345.061 260.622 345.051 260.613 345.042C258.748 344.543 256.911 343.962 255.103 343.299C255.075 343.337 255.047 343.337 255.028 343.309C255.024 343.305 255.022 343.3 255.02 343.296C255.018 343.291 255.018 343.286 255.018 343.28C254.905 343.243 254.793 343.205 254.68 343.167L252.909 352.868C252.909 352.868 280.052 363.511 301.977 352.868L302.109 343.723C300.772 344.406 299.383 344.982 297.956 345.447ZM260.415 351.804C260.366 351.853 260.312 351.897 260.255 351.936C260.179 351.988 260.097 352.029 260.01 352.058C259.961 352.087 259.906 352.106 259.85 352.115C259.803 352.124 259.756 352.134 259.699 352.143C259.621 352.154 259.543 352.161 259.464 352.162C259.088 352.15 258.732 351.993 258.47 351.723C258.208 351.453 258.062 351.092 258.062 350.716C258.062 350.34 258.208 349.979 258.47 349.709C258.732 349.439 259.088 349.282 259.464 349.27C259.674 349.269 259.882 349.311 260.076 349.393C260.139 349.422 260.199 349.456 260.255 349.496C260.312 349.535 260.366 349.579 260.415 349.628C260.66 349.886 260.811 350.217 260.845 350.571C260.879 350.924 260.794 351.278 260.604 351.578C260.551 351.661 260.487 351.737 260.415 351.804ZM267.111 354.469C266.736 354.458 266.379 354.3 266.117 354.031C265.856 353.761 265.709 353.4 265.709 353.024C265.709 352.648 265.856 352.286 266.117 352.017C266.379 351.747 266.736 351.589 267.111 351.578C267.486 351.59 267.842 351.748 268.103 352.018C268.364 352.287 268.51 352.648 268.51 353.023C268.51 353.398 268.364 353.759 268.103 354.029C267.842 354.298 267.486 354.457 267.111 354.469ZM274.514 355.402C274.138 355.39 273.782 355.233 273.52 354.963C273.258 354.693 273.112 354.332 273.112 353.956C273.112 353.58 273.258 353.219 273.52 352.949C273.782 352.679 274.138 352.522 274.514 352.51C274.889 352.523 275.245 352.68 275.505 352.95C275.766 353.22 275.912 353.58 275.912 353.955C275.912 354.331 275.767 354.691 275.506 354.961C275.245 355.231 274.889 355.389 274.514 355.402ZM282.623 355.176C282.247 355.164 281.891 355.007 281.629 354.737C281.367 354.467 281.221 354.106 281.221 353.73C281.221 353.354 281.367 352.993 281.629 352.723C281.891 352.453 282.247 352.296 282.623 352.284C282.998 352.297 283.354 352.454 283.614 352.724C283.875 352.994 284.021 353.354 284.021 353.729C284.021 354.105 283.876 354.465 283.615 354.735C283.354 355.005 282.998 355.163 282.623 355.176ZM290.732 354.017C290.357 354.006 290 353.848 289.738 353.579C289.476 353.309 289.33 352.947 289.33 352.571C289.33 352.196 289.476 351.834 289.738 351.564C290 351.295 290.357 351.137 290.732 351.126C291.107 351.138 291.463 351.296 291.724 351.566C291.985 351.835 292.13 352.196 292.131 352.571C292.131 352.946 291.985 353.307 291.724 353.577C291.463 353.846 291.107 354.005 290.732 354.017ZM297.692 352.162C297.316 352.15 296.96 351.993 296.698 351.723C296.436 351.453 296.29 351.092 296.29 350.716C296.29 350.34 296.436 349.979 296.698 349.709C296.96 349.439 297.316 349.282 297.692 349.27C298.067 349.283 298.423 349.441 298.683 349.71C298.944 349.98 299.09 350.34 299.09 350.716C299.09 351.091 298.945 351.451 298.684 351.721C298.423 351.991 298.067 352.149 297.692 352.162ZM287.888 340.267C286.673 342.499 285.439 344.712 284.206 346.925C286.726 346.852 289.24 346.651 291.74 346.322C291.81 346.314 291.879 346.301 291.947 346.285C290.563 344.288 289.244 342.273 287.888 340.267ZM279.892 340.502L275.739 346.737C276.935 346.822 278.131 346.897 279.327 346.925C280.561 346.972 281.795 346.972 283.028 346.963L279.892 340.502ZM271.51 339.485C270.427 341.604 269.4 343.761 268.355 345.908C270.587 346.228 272.838 346.492 275.079 346.671C273.912 344.269 272.734 341.858 271.51 339.485ZM266.151 342.536L265.04 339.654C263.825 341.34 262.6 343.017 261.376 344.702C263.222 345.089 265.068 345.428 266.933 345.71C267.102 345.729 267.272 345.748 267.451 345.776C267.009 344.702 266.565 343.62 266.151 342.536ZM258.494 339.23C257.373 340.587 256.262 341.934 255.132 343.271C256.865 343.723 258.598 344.137 260.359 344.486C259.719 342.743 259.106 340.992 258.494 339.23ZM254.897 312.775C252.909 314.489 250.885 316.156 248.878 317.851C248.862 317.863 248.842 317.869 248.822 317.87C249.875 318.489 250.981 319.012 252.128 319.433C253.084 319.816 254.102 320.021 255.132 320.036C255.819 320.037 256.501 319.919 257.148 319.687C256.375 317.38 255.631 315.082 254.897 312.775ZM248.04 310.25C246.091 311.23 244.132 312.181 242.182 313.161C243.742 314.446 245.367 315.65 247.051 316.768C247.39 317.003 247.729 317.22 248.078 317.427L248.04 310.25ZM235.994 307.698C236.663 308.32 237.341 308.951 238.038 309.563C239.14 310.58 240.28 311.569 241.429 312.53C241.542 310.147 241.674 307.77 241.824 305.4C239.875 306.163 237.935 306.917 235.994 307.698ZM230.711 302.528C232.35 304.176 233.998 305.805 235.684 307.397L236.145 304.006L236.541 300.738C234.591 301.322 232.66 301.944 230.711 302.528ZM226.068 297.724C227.264 298.986 228.469 300.258 229.694 301.501L230.052 301.859C230.372 300.164 230.72 298.468 231.078 296.773C229.402 297.093 227.744 297.404 226.068 297.724ZM221.99 293.392C223.101 294.588 224.222 295.794 225.352 296.971C225.766 295.408 226.228 293.853 226.661 292.281C225.107 292.676 223.55 293.047 221.99 293.392ZM254.897 312.775C252.909 314.489 250.885 316.156 248.878 317.851C248.862 317.863 248.842 317.869 248.822 317.87C249.875 318.489 250.981 319.012 252.128 319.433C253.084 319.816 254.102 320.021 255.132 320.036C255.819 320.037 256.501 319.919 257.148 319.687C256.375 317.38 255.631 315.082 254.897 312.775ZM248.04 310.25C246.091 311.23 244.132 312.181 242.182 313.161C243.742 314.446 245.367 315.65 247.051 316.768C247.39 317.003 247.729 317.22 248.078 317.427L248.04 310.25ZM235.994 307.698C236.663 308.32 237.341 308.951 238.038 309.563C239.14 310.58 240.28 311.569 241.429 312.53C241.542 310.147 241.674 307.77 241.824 305.4C239.875 306.163 237.935 306.917 235.994 307.698ZM230.711 302.528C232.35 304.176 233.998 305.805 235.684 307.397L236.145 304.006L236.541 300.738C234.591 301.322 232.66 301.944 230.711 302.528ZM226.068 297.724C227.264 298.986 228.469 300.258 229.694 301.501L230.052 301.859C230.372 300.164 230.72 298.468 231.078 296.773C229.402 297.093 227.744 297.404 226.068 297.724ZM221.99 293.392C223.101 294.588 224.222 295.794 225.352 296.971C225.766 295.408 226.228 293.853 226.661 292.281C225.107 292.676 223.55 293.047 221.99 293.392ZM254.897 312.775C252.909 314.489 250.885 316.156 248.878 317.851C248.862 317.863 248.842 317.869 248.822 317.87C249.875 318.489 250.981 319.012 252.128 319.433C253.084 319.816 254.102 320.021 255.132 320.036C255.819 320.037 256.501 319.919 257.148 319.687C256.375 317.38 255.631 315.082 254.897 312.775ZM248.04 310.25C246.091 311.23 244.132 312.181 242.182 313.161C243.742 314.446 245.367 315.65 247.051 316.768C247.39 317.003 247.729 317.22 248.078 317.427L248.04 310.25ZM235.994 307.698C236.663 308.32 237.341 308.951 238.038 309.563C239.14 310.58 240.28 311.569 241.429 312.53C241.542 310.147 241.674 307.77 241.824 305.4C239.875 306.163 237.935 306.917 235.994 307.698ZM230.711 302.528C232.35 304.176 233.998 305.805 235.684 307.397L236.145 304.006L236.541 300.738C234.591 301.322 232.66 301.944 230.711 302.528ZM226.068 297.724C227.264 298.986 228.469 300.258 229.694 301.501L230.052 301.859C230.372 300.164 230.72 298.468 231.078 296.773C229.402 297.093 227.744 297.404 226.068 297.724ZM221.99 293.392C223.101 294.588 224.222 295.794 225.352 296.971C225.766 295.408 226.228 293.853 226.661 292.281C225.107 292.676 223.55 293.047 221.99 293.392ZM254.897 312.775C252.909 314.489 250.885 316.156 248.878 317.851C248.862 317.863 248.842 317.869 248.822 317.87C249.875 318.489 250.981 319.012 252.128 319.433C253.084 319.816 254.102 320.021 255.132 320.036C255.819 320.037 256.501 319.919 257.148 319.687C256.375 317.38 255.631 315.082 254.897 312.775ZM248.04 310.25C246.091 311.23 244.132 312.181 242.182 313.161C243.742 314.446 245.367 315.65 247.051 316.768C247.39 317.003 247.729 317.22 248.078 317.427L248.04 310.25ZM235.994 307.698C236.663 308.32 237.341 308.951 238.038 309.563C239.14 310.58 240.28 311.569 241.429 312.53C241.542 310.147 241.674 307.77 241.824 305.4C239.875 306.163 237.935 306.917 235.994 307.698ZM230.711 302.528C232.35 304.176 233.998 305.805 235.684 307.397L236.145 304.006L236.541 300.738C234.591 301.322 232.66 301.944 230.711 302.528ZM226.068 297.724C227.264 298.986 228.469 300.258 229.694 301.501L230.052 301.859C230.372 300.164 230.72 298.468 231.078 296.773C229.402 297.093 227.744 297.404 226.068 297.724ZM221.99 293.392C223.101 294.588 224.222 295.794 225.352 296.971C225.766 295.408 226.228 293.853 226.661 292.281C225.107 292.676 223.55 293.047 221.99 293.392ZM254.897 312.775C252.909 314.489 250.885 316.156 248.878 317.851C248.862 317.863 248.842 317.869 248.822 317.87C249.875 318.489 250.981 319.012 252.128 319.433C253.084 319.816 254.102 320.021 255.132 320.036C255.819 320.037 256.501 319.919 257.148 319.687C256.375 317.38 255.631 315.082 254.897 312.775ZM248.04 310.25C246.091 311.23 244.132 312.181 242.182 313.161C243.742 314.446 245.367 315.65 247.051 316.768C247.39 317.003 247.729 317.22 248.078 317.427L248.04 310.25ZM235.994 307.698C236.663 308.32 237.341 308.951 238.038 309.563C239.14 310.58 240.28 311.569 241.429 312.53C241.542 310.147 241.674 307.77 241.824 305.4C239.875 306.163 237.935 306.917 235.994 307.698ZM230.711 302.528C232.35 304.176 233.998 305.805 235.684 307.397L236.145 304.006L236.541 300.738C234.591 301.322 232.66 301.944 230.711 302.528ZM226.068 297.724C227.264 298.986 228.469 300.258 229.694 301.501L230.052 301.859C230.372 300.164 230.72 298.468 231.078 296.773C229.402 297.093 227.744 297.404 226.068 297.724ZM221.99 293.392C223.101 294.588 224.222 295.794 225.352 296.971C225.766 295.408 226.228 293.853 226.661 292.281C225.107 292.676 223.55 293.047 221.99 293.392ZM254.897 312.775C252.909 314.489 250.885 316.156 248.878 317.851C248.862 317.863 248.842 317.869 248.822 317.87C249.875 318.489 250.981 319.012 252.128 319.433C253.084 319.816 254.102 320.021 255.132 320.036C255.819 320.037 256.501 319.919 257.148 319.687C256.375 317.38 255.631 315.082 254.897 312.775ZM248.04 310.25C246.091 311.23 244.132 312.181 242.182 313.161C243.742 314.446 245.367 315.65 247.051 316.768C247.39 317.003 247.729 317.22 248.078 317.427L248.04 310.25ZM235.994 307.698C236.663 308.32 237.341 308.951 238.038 309.563C239.14 310.58 240.28 311.569 241.429 312.53C241.542 310.147 241.674 307.77 241.824 305.4C239.875 306.163 237.935 306.917 235.994 307.698ZM230.711 302.528C232.35 304.176 233.998 305.805 235.684 307.397L236.145 304.006L236.541 300.738C234.591 301.322 232.66 301.944 230.711 302.528ZM226.068 297.724C227.264 298.986 228.469 300.258 229.694 301.501L230.052 301.859C230.372 300.164 230.72 298.468 231.078 296.773C229.402 297.093 227.744 297.404 226.068 297.724ZM221.99 293.392C223.101 294.588 224.222 295.794 225.352 296.971C225.766 295.408 226.228 293.853 226.661 292.281C225.107 292.676 223.55 293.047 221.99 293.392ZM254.897 312.775C252.909 314.489 250.885 316.156 248.878 317.851C248.862 317.863 248.842 317.869 248.822 317.87C249.875 318.489 250.981 319.012 252.128 319.433C253.084 319.816 254.102 320.021 255.132 320.036C255.819 320.037 256.501 319.919 257.148 319.687C256.375 317.38 255.631 315.082 254.897 312.775ZM248.04 310.25C246.091 311.23 244.132 312.181 242.182 313.161C243.742 314.446 245.367 315.65 247.051 316.768C247.39 317.003 247.729 317.22 248.078 317.427L248.04 310.25ZM235.994 307.698C236.663 308.32 237.341 308.951 238.038 309.563C239.14 310.58 240.28 311.569 241.429 312.53C241.542 310.147 241.674 307.77 241.824 305.4C239.875 306.163 237.935 306.917 235.994 307.698ZM230.711 302.528C232.35 304.176 233.998 305.805 235.684 307.397L236.145 304.006L236.541 300.738C234.591 301.322 232.66 301.944 230.711 302.528ZM226.068 297.724C227.264 298.986 228.469 300.258 229.694 301.501L230.052 301.859C230.372 300.164 230.72 298.468 231.078 296.773C229.402 297.093 227.744 297.404 226.068 297.724ZM221.99 293.392C223.101 294.588 224.222 295.794 225.352 296.971C225.766 295.408 226.228 293.853 226.661 292.281C225.107 292.676 223.55 293.047 221.99 293.392Z" fill="#9B51E0"/>
<path d="M401.306 157.271C401.681 157.258 402.037 157.1 402.298 156.829C402.559 156.559 402.705 156.198 402.705 155.823C402.705 155.447 402.559 155.086 402.298 154.816C402.037 154.546 401.681 154.388 401.306 154.375C400.931 154.388 400.575 154.546 400.314 154.816C400.053 155.086 399.907 155.447 399.907 155.823C399.907 156.198 400.053 156.559 400.314 156.829C400.575 157.1 400.931 157.258 401.306 157.271Z" fill="#020202"/>
<path d="M424.272 159.068C424.647 159.055 425.003 158.896 425.264 158.626C425.525 158.356 425.67 157.995 425.67 157.62C425.67 157.244 425.525 156.883 425.264 156.613C425.003 156.343 424.647 156.185 424.272 156.172C423.896 156.185 423.541 156.343 423.28 156.613C423.019 156.883 422.873 157.244 422.873 157.62C422.873 157.995 423.019 158.356 423.28 158.626C423.541 158.896 423.896 159.055 424.272 159.068Z" fill="#020202"/>
<path d="M405.431 167.656C405.456 168.193 405.352 168.728 405.13 169.217C404.916 169.713 404.614 170.166 404.238 170.555C403.858 170.949 403.4 171.259 402.892 171.464C402.393 171.677 401.845 171.752 401.307 171.68C401.746 171.353 402.156 171.115 402.521 170.809C402.886 170.526 403.229 170.215 403.548 169.881C404.203 169.225 404.759 168.482 405.431 167.656Z" fill="#020202"/>
<path d="M398.659 151.326C398.909 150.867 399.308 150.508 399.791 150.308C400.265 150.09 400.801 150.043 401.306 150.175C401.057 150.634 400.658 150.994 400.175 151.193C399.699 151.408 399.165 151.455 398.659 151.326Z" fill="#020202"/>
<path d="M425.761 160.531C425.611 160.791 425.394 161.006 425.132 161.151C424.87 161.297 424.573 161.369 424.273 161.358C423.971 161.358 423.674 161.283 423.409 161.14C423.145 161.002 422.928 160.791 422.783 160.531C423.384 160.572 423.819 160.642 424.274 160.635C424.771 160.63 425.268 160.595 425.761 160.531Z" fill="#020202"/>
<path d="M380.122 254.504C380.407 251.356 380.042 248.182 379.049 245.18C378.092 242.19 376.593 239.401 374.627 236.954C373.65 235.74 372.567 234.616 371.389 233.596L367.858 230.38C365.514 228.216 363.126 226.132 360.814 223.9C356.34 219.298 352.403 214.204 349.077 208.714C345.681 203.281 342.744 197.574 340.299 191.651C340.281 191.606 340.267 191.559 340.258 191.51L340.254 191.491C340.062 190.448 339.846 189.41 339.554 188.393C339.27 187.377 338.926 186.377 338.526 185.4C338.122 184.43 337.654 183.489 337.123 182.582C336.611 181.699 336.012 180.87 335.334 180.107L335.458 180.204C332.813 178.494 330.133 176.839 327.387 175.315C324.691 173.743 321.841 172.45 318.883 171.455C318.164 171.237 317.424 171.097 316.675 171.038C316.353 170.986 316.024 171.002 315.709 171.086C315.395 171.17 315.101 171.319 314.847 171.523C314.652 171.731 314.533 171.998 314.508 172.282C314.523 172.602 314.613 172.914 314.771 173.192C315.142 173.843 315.599 174.44 316.131 174.967C318.408 177.118 320.927 178.999 323.636 180.572C323.702 180.613 323.752 180.675 323.779 180.748C323.805 180.821 323.805 180.901 323.781 180.975C323.756 181.049 323.707 181.112 323.641 181.154C323.576 181.196 323.498 181.215 323.421 181.208C322.305 181.116 321.183 181.176 320.084 181.388C318.985 181.583 317.932 181.982 316.98 182.564C316.034 183.143 315.254 183.956 314.715 184.925C314.184 185.909 313.858 186.989 313.756 188.102C313.749 188.166 313.722 188.225 313.678 188.271L313.669 188.281C312.734 189.191 312.098 190.362 311.842 191.641C311.759 192.258 311.871 192.886 312.162 193.437C312.472 193.991 312.899 194.47 313.414 194.841L313.422 194.848C313.475 194.892 313.513 194.953 313.53 195.02C313.548 195.088 313.543 195.159 313.517 195.224C313.173 196.088 312.917 196.985 312.751 197.901C312.573 198.797 312.563 199.719 312.724 200.618C312.794 201.041 312.955 201.444 313.196 201.799C313.436 202.153 313.751 202.452 314.117 202.674C314.914 203.071 315.801 203.251 316.69 203.195L316.364 203.752L314.838 200.951C314.793 200.868 314.778 200.771 314.796 200.677C314.813 200.584 314.863 200.499 314.937 200.439C315.01 200.378 315.102 200.344 315.197 200.344C315.293 200.344 315.385 200.377 315.459 200.437C317.159 201.762 318.686 203.294 320.004 204.998C320.337 205.449 320.624 205.931 320.862 206.438C320.986 206.707 321.084 206.986 321.154 207.274C321.179 207.397 321.21 207.518 321.249 207.637C321.271 207.741 321.308 207.842 321.358 207.936C321.829 208.764 322.532 209.437 323.38 209.87C324.259 210.358 325.197 210.733 326.17 210.984C327.107 211.253 328.089 211.331 329.056 211.211C329.405 211.182 329.756 211.224 330.088 211.335C330.42 211.446 330.726 211.624 330.987 211.858C331.435 212.221 331.841 212.631 332.201 213.082C332.881 213.938 333.49 214.848 334.023 215.803C335.07 217.68 335.967 219.637 336.708 221.655C337.086 222.657 337.397 223.719 337.745 224.633C338.132 225.596 338.533 226.557 338.964 227.514C340.669 231.342 342.554 235.107 344.527 238.815C348.388 246.258 352.935 253.325 358.109 259.925C359.408 261.556 360.821 263.075 362.249 264.568L364.502 266.672C365.255 267.304 366.073 267.855 366.942 268.315C368.684 269.229 370.617 269.722 372.584 269.755C374.551 269.789 376.499 269.362 378.272 268.509L378.008 268.697L378.045 268.669L378.238 268.525C378.261 268.508 378.284 268.494 378.309 268.482C380.275 267.526 382.092 266.291 383.705 264.816C384.509 264.091 385.276 263.267 386.081 262.45L388.466 260.009L398.059 250.301L398.063 250.297C398.095 250.265 398.129 250.236 398.165 250.209C401.888 247.484 405.529 244.585 409.062 241.59C412.598 238.592 416.057 235.499 419.329 232.219C422.627 228.97 425.651 225.455 428.369 221.707C429.709 219.828 430.848 217.813 431.769 215.697C432.734 213.596 433.131 211.279 432.921 208.977C432.917 208.953 432.923 208.927 432.937 208.907C432.952 208.887 432.974 208.873 432.998 208.869C433.023 208.865 433.048 208.872 433.068 208.886C433.088 208.9 433.102 208.922 433.107 208.946C433.41 211.292 433.092 213.676 432.186 215.86C431.33 218.048 430.248 220.14 428.957 222.102C426.345 225.989 423.389 229.634 420.125 232.993C416.903 236.38 413.519 239.608 410.007 242.686C406.489 245.763 402.891 248.723 399.148 251.555L399.253 251.463L389.814 261.32L387.44 263.771C386.651 264.575 385.871 265.422 384.988 266.226C383.243 267.831 381.275 269.176 379.146 270.22L379.409 270.033L379.372 270.061L379.186 270.201C379.162 270.219 379.135 270.235 379.107 270.249C377.063 271.234 374.819 271.734 372.55 271.709C370.278 271.68 368.044 271.117 366.03 270.064C365.031 269.539 364.09 268.91 363.224 268.187L360.842 265.98C359.336 264.451 357.913 262.843 356.58 261.162C351.388 254.423 346.836 247.214 342.985 239.628C341.017 235.872 339.175 232.056 337.51 228.145C337.089 227.171 336.692 226.179 336.308 225.178C335.924 224.111 335.662 223.14 335.309 222.162C334.621 220.206 333.787 218.305 332.814 216.474C332.34 215.573 331.794 214.712 331.18 213.9C330.89 213.518 330.561 213.167 330.197 212.854C329.944 212.599 329.604 212.448 329.245 212.431C328.109 212.553 326.96 212.442 325.869 212.105C324.803 211.804 323.781 211.367 322.827 210.804C321.8 210.242 320.965 209.385 320.429 208.345C320.361 208.203 320.31 208.053 320.277 207.899C320.233 207.74 320.195 207.587 320.18 207.496C320.129 207.269 320.056 207.048 319.963 206.835C319.76 206.383 319.514 205.951 319.227 205.546C317.99 203.886 316.552 202.385 314.945 201.079L315.565 200.565L317.034 203.396L317.049 203.425C317.071 203.467 317.084 203.513 317.088 203.561C317.092 203.608 317.087 203.656 317.073 203.701C317.058 203.746 317.035 203.788 317.005 203.825C316.974 203.861 316.937 203.891 316.894 203.913C316.837 203.943 316.773 203.956 316.708 203.953C315.683 203.993 314.665 203.76 313.759 203.279C313.311 203.004 312.928 202.637 312.634 202.202C312.341 201.767 312.144 201.274 312.056 200.756C311.885 199.772 311.9 198.763 312.102 197.784C312.282 196.821 312.56 195.879 312.93 194.972L313.034 195.355C312.444 194.922 311.957 194.365 311.607 193.722C311.264 193.057 311.135 192.302 311.239 191.561C311.356 190.849 311.606 190.165 311.978 189.545C312.335 188.932 312.768 188.367 313.269 187.863L313.181 188.041C313.306 186.854 313.654 185.701 314.207 184.642C314.784 183.581 315.625 182.686 316.649 182.044C317.661 181.409 318.784 180.97 319.958 180.749C321.123 180.512 322.316 180.437 323.502 180.526L323.287 181.162C320.514 179.571 317.92 177.689 315.546 175.548C314.94 174.975 314.416 174.321 313.989 173.604C313.75 173.197 313.614 172.738 313.594 172.266C313.611 171.755 313.808 171.266 314.151 170.886C314.491 170.568 314.896 170.327 315.338 170.18C315.78 170.033 316.249 169.984 316.712 170.036C317.542 170.077 318.365 170.209 319.165 170.43C322.232 171.371 325.193 172.625 328.003 174.172C330.823 175.649 333.567 177.253 336.273 178.911L336.28 178.916C336.322 178.942 336.361 178.973 336.397 179.009C337.192 179.848 337.887 180.777 338.469 181.777C339.045 182.743 339.555 183.748 339.996 184.783C340.429 185.816 340.801 186.873 341.111 187.949C341.427 189.021 341.664 190.113 341.874 191.208L341.829 191.048C344.287 196.859 347.157 202.487 350.419 207.889C353.643 213.309 357.456 218.355 361.791 222.936C363.999 225.171 366.352 227.326 368.627 229.526L372.067 232.812C373.269 233.902 374.369 235.098 375.356 236.385C377.303 238.968 378.748 241.894 379.615 245.011C380.526 248.097 380.762 251.344 380.309 254.53C380.305 254.555 380.292 254.577 380.272 254.592C380.252 254.607 380.227 254.613 380.203 254.61C380.178 254.606 380.156 254.593 380.141 254.574C380.125 254.554 380.119 254.529 380.122 254.504Z" fill="black"/>
<path d="M313.233 194.595L315.404 195.173L313.197 195.592C313.064 195.616 312.927 195.587 312.816 195.511C312.705 195.434 312.628 195.317 312.603 195.184C312.578 195.052 312.606 194.914 312.681 194.802C312.757 194.691 312.874 194.613 313.006 194.587C313.082 194.573 313.159 194.576 313.233 194.595Z" fill="black"/>
<path d="M313.42 187.57L317.67 187.647L313.52 188.563C313.455 188.577 313.389 188.578 313.324 188.567C313.259 188.555 313.197 188.531 313.141 188.496C313.086 188.46 313.038 188.414 313 188.36C312.962 188.306 312.935 188.245 312.921 188.181C312.907 188.116 312.905 188.05 312.917 187.985C312.928 187.92 312.953 187.858 312.988 187.802C313.024 187.747 313.07 187.699 313.124 187.661C313.178 187.623 313.239 187.596 313.303 187.582C313.342 187.574 313.381 187.57 313.42 187.57Z" fill="black"/>
<path d="M317.992 206.281C310.569 208.781 302.983 210.77 295.288 212.235C291.43 212.965 287.53 213.457 283.612 213.71C281.652 213.842 279.687 213.922 277.722 213.921C276.74 213.937 275.757 213.926 274.774 213.889C273.79 213.871 272.807 213.803 271.83 213.707L271.856 213.709L271.846 213.708H271.842L271.818 213.707C270.678 213.607 269.547 213.426 268.433 213.165C267.289 212.914 266.195 212.477 265.195 211.869C265.119 211.82 265.064 211.746 265.039 211.66C265.014 211.573 265.021 211.481 265.059 211.4C265.097 211.318 265.164 211.253 265.246 211.217C265.328 211.181 265.42 211.176 265.506 211.203L265.527 211.209C270.627 212.81 276.004 213.273 281.326 213.593C286.665 213.907 292.027 213.818 297.384 213.648C300.072 213.54 302.723 213.464 305.445 213.306C308.104 213.188 310.787 213.013 313.472 212.852L329.594 211.731C329.619 211.729 329.644 211.737 329.664 211.753C329.683 211.769 329.696 211.792 329.7 211.817C329.703 211.842 329.697 211.868 329.682 211.888C329.667 211.909 329.645 211.923 329.62 211.928C324.327 213.002 318.988 213.834 313.624 214.495C310.943 214.827 308.254 215.087 305.535 215.312C302.881 215.51 300.15 215.711 297.452 215.777C292.029 215.95 286.601 215.8 281.196 215.327C275.764 214.892 270.412 213.743 265.279 211.911L265.612 211.252C266.522 211.852 267.529 212.291 268.589 212.551C269.667 212.822 270.766 213.007 271.875 213.104L271.846 213.103L271.856 213.102L271.883 213.104C275.76 213.346 279.652 213.131 283.479 212.463C287.322 211.892 291.134 211.14 294.963 210.474C302.622 209.112 310.241 207.484 317.942 206.088C317.967 206.083 317.992 206.088 318.014 206.102C318.035 206.115 318.05 206.136 318.057 206.161C318.063 206.185 318.06 206.211 318.048 206.233C318.036 206.256 318.016 206.273 317.992 206.281Z" fill="black"/>
<path d="M349.954 208.64C350.976 208.233 352.009 207.898 353.042 207.57C354.079 207.256 355.114 206.943 356.157 206.677C357.197 206.39 358.244 206.144 359.291 205.9C360.334 205.638 361.392 205.448 362.443 205.222L361.665 206.154C361.678 204.952 361.764 203.753 361.81 202.552C361.888 201.352 361.968 200.152 362.082 198.954C362.193 197.755 362.33 196.557 362.494 195.36C362.673 194.163 362.847 192.967 363.12 191.773C363.315 192.982 363.411 194.188 363.512 195.393C363.597 196.598 363.656 197.802 363.689 199.006C363.726 200.209 363.727 201.412 363.727 202.614C363.695 203.815 363.703 205.018 363.637 206.218L363.634 206.281C363.622 206.493 363.539 206.694 363.399 206.851C363.258 207.009 363.068 207.115 362.86 207.151C361.794 207.333 360.736 207.552 359.663 207.699C358.594 207.864 357.524 208.027 356.448 208.149C355.375 208.292 354.294 208.388 353.214 208.483C352.131 208.563 351.048 208.637 349.954 208.64Z" fill="black"/>
<path d="M316.85 125.189C313.516 124.311 310.029 124.174 306.637 124.79C301.739 125.897 293.57 122.715 293.57 122.715C293.57 122.715 290.747 121.049 291.316 125.658C291.316 125.658 293.221 137.756 291.905 145.367C290.578 152.987 291.555 153.346 293.082 152.638C294.597 151.919 301.669 152.558 308.961 152.648C316.242 152.737 315.972 151.271 315.454 147.282C314.925 143.292 316.85 125.189 316.85 125.189ZM313.678 145.785C314.117 149.147 314.347 150.394 308.193 150.314C302.038 150.234 296.064 149.695 294.787 150.304C293.501 150.902 292.673 150.593 293.79 144.169C294.907 137.736 293.301 127.523 293.301 127.523C292.812 123.633 295.206 125.039 295.206 125.039C295.206 125.039 302.099 127.722 306.227 126.785C309.094 126.268 312.038 126.384 314.855 127.124C314.855 127.124 313.229 142.414 313.678 145.785Z" fill="black"/>
<path d="M310.347 142.97C310.634 145.17 310.785 145.985 306.758 145.933C302.731 145.881 298.822 145.528 297.987 145.927C297.145 146.318 296.604 146.116 297.335 141.913C298.065 137.704 297.015 131.021 297.015 131.021C296.695 128.476 298.261 129.396 298.261 129.396C298.261 129.396 302.771 131.152 305.472 130.538C307.348 130.201 309.274 130.276 311.117 130.76C311.117 130.76 310.054 140.765 310.347 142.97Z" fill="black"/>
<path d="M269.198 124.55C271.619 124.291 274.057 124.219 276.489 124.335C278.923 124.407 281.348 124.668 283.742 125.117C281.321 125.378 278.883 125.45 276.451 125.331C274.017 125.258 271.592 124.996 269.198 124.55Z" fill="black"/>
<path d="M273.051 153.01C275.472 152.752 277.91 152.68 280.342 152.796C282.776 152.867 285.201 153.129 287.594 153.577C285.173 153.839 282.735 153.91 280.303 153.792C277.869 153.718 275.445 153.457 273.051 153.01Z" fill="black"/>
<path d="M270.54 143.901C272.961 143.642 275.399 143.571 277.831 143.687C280.265 143.758 282.69 144.019 285.083 144.468C282.662 144.729 280.225 144.801 277.792 144.683C275.358 144.609 272.934 144.348 270.54 143.901Z" fill="black"/>
<path d="M274.798 162.651C279.822 162.353 284.841 162.358 289.859 162.436C294.876 162.545 299.891 162.729 304.901 163.218C299.876 163.518 294.858 163.513 289.84 163.433C284.823 163.322 279.808 163.137 274.798 162.651Z" fill="black"/>
<path d="M274.251 202.337C279.197 201.467 284.172 200.898 289.154 200.403C294.139 199.937 299.132 199.548 304.153 199.461C299.207 200.333 294.232 200.902 289.25 201.395C284.264 201.858 279.272 202.248 274.251 202.337Z" fill="black"/>
<path d="M270.843 130.134C272.828 129.708 274.848 129.466 276.877 129.413C278.905 129.315 280.937 129.407 282.948 129.688C280.963 130.116 278.943 130.358 276.913 130.409C274.886 130.505 272.853 130.413 270.843 130.134Z" fill="black"/>
<path d="M271.385 135.524C273.37 135.098 275.39 134.857 277.419 134.804C279.447 134.706 281.479 134.798 283.49 135.079C281.505 135.507 279.485 135.748 277.456 135.8C275.428 135.895 273.396 135.803 271.385 135.524Z" fill="black"/>
<path d="M273.566 149.063C275.551 148.637 277.571 148.396 279.601 148.343C281.628 148.245 283.661 148.337 285.671 148.618C283.687 149.046 281.667 149.287 279.637 149.339C277.609 149.435 275.577 149.342 273.566 149.063Z" fill="black"/>
<path d="M273.839 139.97C275.824 139.544 277.844 139.302 279.873 139.249C281.901 139.151 283.933 139.243 285.944 139.524C283.959 139.952 281.939 140.194 279.91 140.245C277.882 140.341 275.85 140.249 273.839 139.97Z" fill="black"/>
<path d="M272.937 182.002C277.961 181.705 282.98 181.709 287.998 181.788C293.015 181.896 298.03 182.08 303.04 182.569C298.015 182.869 292.996 182.865 287.979 182.784C282.962 182.674 277.946 182.489 272.937 182.002Z" fill="black"/>
<path d="M273.562 168.233C277.731 167.767 281.906 167.602 286.081 167.512C290.258 167.452 294.435 167.468 298.618 167.788C294.449 168.257 290.275 168.42 286.099 168.509C281.923 168.567 277.745 168.551 273.562 168.233Z" fill="black"/>
<path d="M274.685 173.624C278.854 173.157 283.028 172.993 287.204 172.903C291.38 172.842 295.557 172.858 299.74 173.178C295.571 173.647 291.397 173.811 287.221 173.899C283.045 173.958 278.867 173.942 274.685 173.624Z" fill="black"/>
<path d="M278.521 191.733C282.69 191.267 286.865 191.102 291.04 191.012C295.216 190.952 299.394 190.967 303.577 191.288C299.408 191.756 295.234 191.921 291.058 192.009C286.882 192.067 282.704 192.051 278.521 191.733Z" fill="black"/>
<path d="M279.644 197.124C283.813 196.657 287.987 196.493 292.162 196.403C296.338 196.342 300.516 196.358 304.699 196.678C300.53 197.147 296.356 197.311 292.18 197.399C288.004 197.457 283.826 197.442 279.644 197.124Z" fill="black"/>
<path d="M279.2 187.163C283.369 186.696 287.543 186.532 291.719 186.442C295.895 186.382 300.073 186.397 304.256 186.718C300.087 187.186 295.912 187.35 291.737 187.438C287.561 187.497 283.383 187.481 279.2 187.163Z" fill="black"/>
<path d="M279.765 178.077C283.934 177.611 288.108 177.446 292.284 177.356C296.46 177.296 300.637 177.311 304.82 177.632C300.651 178.1 296.477 178.264 292.301 178.353C288.125 178.411 283.948 178.395 279.765 178.077Z" fill="black"/>
<path d="M317.608 205.918C317.517 205.918 317.429 205.885 317.36 205.825C317.291 205.766 317.246 205.684 317.233 205.594C317.219 205.503 317.239 205.412 317.288 205.335C317.336 205.258 317.411 205.201 317.498 205.175C317.546 205.156 317.597 205.147 317.648 205.149C317.699 205.15 317.75 205.162 317.796 205.183C317.843 205.205 317.884 205.235 317.919 205.273C317.953 205.311 317.98 205.356 317.996 205.404C318.013 205.453 318.02 205.504 318.016 205.555C318.013 205.606 317.999 205.656 317.975 205.701C317.952 205.747 317.92 205.787 317.88 205.82C317.841 205.853 317.795 205.877 317.746 205.892C317.702 205.908 317.655 205.917 317.608 205.918Z" fill="black"/>
<path d="M295.55 352.043C295.761 354.305 296.007 356.563 296.375 358.796C296.698 361.016 297.2 363.206 297.878 365.345C298.053 365.859 298.26 366.363 298.498 366.851C298.613 367.097 298.743 367.312 298.878 367.549C299.024 367.809 299.185 368.064 299.315 368.332C299.861 369.385 300.289 370.496 300.592 371.644C301.225 373.929 301.456 376.306 301.275 378.67C301.187 379.876 300.947 381.066 300.56 382.212C300.175 383.428 299.504 384.534 298.603 385.437C298.126 385.908 297.567 386.287 296.953 386.557C296.647 386.695 296.328 386.803 296.002 386.881L295.133 387.052C294.081 387.313 293.057 387.679 292.078 388.144C289.879 388.955 287.577 389.455 285.24 389.628C282.945 389.856 280.656 389.923 278.373 389.931C273.806 389.938 269.257 389.783 264.706 389.648C262.431 389.576 260.157 389.483 257.884 389.368C255.608 389.294 253.335 389.181 251.061 389.077C241.962 388.678 232.882 387.957 223.82 387.099L223.783 387.095C223.576 387.076 223.381 386.985 223.232 386.839C223.083 386.692 222.989 386.499 222.966 386.291C222.936 386.051 222.939 385.809 222.973 385.569C222.996 385.375 223.032 385.183 223.082 384.994C223.175 384.642 223.302 384.3 223.464 383.973C223.607 383.656 223.779 383.354 223.977 383.068C224.156 382.782 224.356 382.51 224.576 382.255C225.406 381.258 226.365 380.377 227.429 379.634C229.48 378.21 231.677 377.009 233.983 376.052C235.125 375.589 236.272 375.14 237.429 374.734C238.588 374.354 239.761 373.938 240.909 373.589C243.212 372.864 245.521 372.164 247.807 371.404C252.386 369.974 256.84 368.169 261.123 366.008C263.229 364.918 265.145 363.494 266.796 361.793C268.441 360.059 269.411 357.793 269.53 355.406C269.53 355.393 269.533 355.381 269.539 355.369C269.544 355.358 269.551 355.347 269.561 355.339C269.57 355.33 269.581 355.323 269.593 355.319C269.605 355.315 269.617 355.312 269.63 355.313C269.654 355.314 269.677 355.325 269.694 355.342C269.711 355.359 269.721 355.382 269.723 355.406C269.809 357.908 268.972 360.354 267.37 362.278C265.769 364.171 263.853 365.774 261.707 367.016C257.47 369.452 253.007 371.472 248.38 373.047C246.096 373.877 243.808 374.688 241.506 375.445C240.344 375.818 239.243 376.231 238.109 376.621C236.99 377.033 235.889 377.485 234.797 377.946C232.632 378.847 230.566 379.97 228.633 381.297C227.705 381.933 226.86 382.682 226.118 383.526C225.938 383.725 225.774 383.937 225.628 384.162C225.476 384.369 225.344 384.591 225.233 384.824C225.121 385.036 225.031 385.26 224.964 385.491C224.934 385.594 224.912 385.699 224.896 385.805C224.877 385.885 224.882 386.042 224.871 385.987L224.018 385.18C233.052 386.182 242.091 387.139 251.134 388.049C253.397 388.252 255.66 388.464 257.926 388.637C260.193 388.798 262.461 388.921 264.731 389.032C269.265 389.272 273.81 389.27 278.344 389.028C280.605 388.898 282.863 388.703 285.082 388.366C287.276 388.082 289.422 387.506 291.463 386.654C292.526 386.116 293.64 385.688 294.79 385.377L295.249 385.29L295.593 385.215C295.82 385.16 296.04 385.084 296.251 384.986C296.68 384.796 297.07 384.527 297.401 384.193C298.757 382.606 299.539 380.607 299.619 378.521C299.816 376.342 299.655 374.146 299.142 372.019C298.888 370.96 298.535 369.927 298.09 368.933C297.984 368.682 297.851 368.449 297.732 368.206C297.598 367.943 297.45 367.661 297.337 367.386C297.105 366.839 296.907 366.278 296.744 365.707C296.139 363.478 295.751 361.196 295.586 358.893C295.392 356.616 295.316 354.332 295.357 352.047C295.357 352.022 295.368 351.997 295.387 351.98C295.405 351.962 295.43 351.953 295.456 351.953C295.48 351.954 295.502 351.964 295.52 351.98C295.537 351.997 295.548 352.019 295.55 352.043Z" fill="#020202"/>
<path d="M288.785 364.594C289.163 365.332 289.359 366.15 289.357 366.98C289.369 367.833 289.181 368.678 288.808 369.446C288.433 370.221 287.858 370.882 287.141 371.361C286.458 371.832 285.671 372.134 284.847 372.239C285.49 371.801 286.097 371.312 286.663 370.779C287.193 370.275 287.627 369.679 287.942 369.02C288.561 367.629 288.85 366.114 288.785 364.594Z" fill="#020202"/>
<path d="M298.164 384.467C298.164 384.467 303.65 386.372 300.619 396.333C300.619 396.333 301.063 400.04 287.858 399.345L221.37 399.432C221.37 399.432 216.448 388.554 226.67 386.42L243.361 387.965C243.361 387.965 239.208 378.032 240.367 374.788C242.145 371.887 244.836 369.657 248.018 368.448C251.199 367.239 254.692 367.12 257.949 368.108C257.949 368.108 257.263 384.047 269.549 389.495C269.549 389.495 287.62 388.585 298.164 384.467Z" fill="#020202"/>
<path d="M248.652 318.828C247.864 320.963 247.092 323.104 246.434 325.275C245.739 327.416 245.193 329.602 244.8 331.819C244.713 332.36 244.656 332.905 244.629 333.452C244.605 333.97 244.621 334.544 244.619 335.136C244.616 336.309 244.523 337.48 244.34 338.638C244.022 341.031 243.139 343.313 241.765 345.297C240.298 347.296 238.216 348.759 235.838 349.46C235.258 349.633 234.669 349.773 234.074 349.88L232.39 350.129C231.229 350.401 230.042 350.547 228.849 350.565C226.485 350.333 224.181 349.679 222.047 348.635C219.938 347.699 217.903 346.646 215.898 345.549C207.905 341.121 200.077 336.472 192.18 331.908C184.285 327.344 176.527 322.553 168.821 317.687L168.791 317.667C168.614 317.556 168.481 317.387 168.415 317.189C168.348 316.991 168.352 316.776 168.425 316.581C168.509 316.348 168.624 316.127 168.766 315.924C168.879 315.759 169.002 315.601 169.135 315.451C169.386 315.174 169.664 314.923 169.964 314.701C170.526 314.278 171.139 313.929 171.789 313.66C173.017 313.147 174.308 312.8 175.628 312.627C178.172 312.301 180.744 312.242 183.3 312.452C185.814 312.671 188.344 313.051 190.776 313.453C193.218 313.852 195.664 314.215 198.119 314.496C200.573 314.778 203.035 314.992 205.497 315.081C207.954 315.195 210.416 315.159 212.869 314.972C215.31 314.795 217.715 314.285 220.017 313.457C222.346 312.66 224.31 311.052 225.549 308.926C225.561 308.904 225.581 308.887 225.604 308.88C225.628 308.872 225.654 308.874 225.676 308.884C225.699 308.895 225.716 308.914 225.725 308.937C225.734 308.96 225.733 308.986 225.724 309.009C224.614 311.329 222.686 313.156 220.311 314.14C217.984 315.155 215.52 315.822 212.999 316.117C208 316.698 202.953 316.73 197.948 316.213C195.451 315.999 192.961 315.727 190.484 315.373C188.001 314.998 185.601 314.681 183.153 314.502C180.747 314.315 178.328 314.367 175.931 314.658C174.781 314.801 173.652 315.084 172.57 315.502C172.065 315.697 171.586 315.955 171.145 316.271C170.941 316.413 170.752 316.576 170.581 316.755C170.506 316.837 170.436 316.922 170.371 317.012C170.316 317.077 170.246 317.223 170.262 317.17L169.865 316.064L192.724 331.024L198.478 334.704C200.41 335.909 202.362 337.079 204.314 338.249C208.219 340.586 212.209 342.788 216.302 344.761C218.349 345.742 220.42 346.671 222.521 347.476C224.536 348.335 226.684 348.838 228.87 348.966C229.956 348.912 231.032 348.743 232.082 348.461C232.371 348.398 232.675 348.355 232.975 348.311L233.774 348.189C234.299 348.091 234.818 347.964 235.329 347.809C237.357 347.212 239.142 345.984 240.426 344.304C241.675 342.54 242.507 340.515 242.861 338.382C243.057 337.294 243.187 336.195 243.251 335.091C243.282 334.544 243.293 333.98 243.352 333.361C243.411 332.772 243.503 332.188 243.626 331.609C244.124 329.356 244.812 327.149 245.682 325.011C246.531 322.883 247.438 320.786 248.476 318.749C248.487 318.726 248.508 318.709 248.532 318.701C248.556 318.693 248.583 318.695 248.606 318.706C248.627 318.718 248.643 318.736 248.652 318.758C248.66 318.781 248.66 318.805 248.652 318.828Z" fill="#020202"/>
<path d="M236.945 326.969C236.948 327.798 236.753 328.616 236.377 329.355C236.002 330.122 235.453 330.791 234.772 331.307C234.088 331.829 233.276 332.159 232.421 332.262C231.597 332.374 230.759 332.287 229.977 332.009C230.748 331.908 231.511 331.747 232.257 331.527C232.957 331.317 233.613 330.981 234.193 330.536C235.373 329.575 236.315 328.354 236.945 326.969Z" fill="#020202"/>
<path d="M236.332 348.936C236.332 348.936 240.365 353.114 233.159 360.631C233.159 360.631 231.88 364.138 220.414 357.551L161.063 327.581C161.063 327.581 161.589 315.653 171.671 318.369L185.863 327.29C185.863 327.29 186.647 316.552 189.146 314.183C192.044 312.398 195.452 311.625 198.837 311.984C202.221 312.344 205.391 313.816 207.85 316.169C207.85 316.169 200.034 330.077 208.532 340.49C208.532 340.49 225.065 347.845 236.332 348.936Z" fill="#020202"/>
<path d="M438.876 164.703L439.915 171.541C440.275 173.812 440.654 176.077 441.098 178.325C441.513 180.58 442.05 182.805 442.673 185.001C443.234 187.224 444.138 189.345 445.351 191.291C443.8 189.537 442.636 187.477 441.933 185.244C441.155 183.052 440.549 180.803 440.12 178.516C439.233 173.967 438.816 169.338 438.876 164.703Z" fill="#020202"/>
<path d="M440.312 131.35C440.312 131.35 454.316 118.477 471.551 147.3C488.787 176.123 488.57 188.099 495.392 186.939C495.392 186.939 478.317 200.205 457.132 178.073C435.947 155.941 440.312 131.35 440.312 131.35Z" fill="#020202"/>
<path d="M440.212 178.084C440.101 177.048 440.146 176.001 440.344 174.979C440.581 173.951 440.987 172.97 441.546 172.077C442.705 170.31 444.249 168.829 446.063 167.745C447.85 166.667 449.752 165.79 451.734 165.133C453.71 164.457 455.738 163.947 457.798 163.606L457.656 163.639C459.353 163.116 461.125 162.883 462.899 162.948C464.682 162.985 466.443 163.354 468.091 164.037C468.494 164.232 468.908 164.407 469.3 164.623C469.683 164.857 470.072 165.08 470.447 165.326L471.515 166.139C471.841 166.399 472.139 166.653 472.47 166.899C473.766 167.892 475.162 168.808 476.559 169.716L485.036 175.141C487.907 176.95 490.653 178.952 493.254 181.133C493.918 181.711 494.529 182.347 495.081 183.032C495.384 183.406 495.629 183.822 495.809 184.268C495.859 184.395 495.895 184.527 495.918 184.661L495.96 184.865C495.968 184.967 495.967 185.071 495.955 185.173C495.886 185.524 495.685 185.836 495.393 186.044C494.601 186.524 493.718 186.835 492.799 186.957C491.951 187.117 491.105 187.222 490.261 187.305C486.884 187.613 483.522 187.686 480.158 187.733C476.795 187.769 473.434 187.764 470.073 187.747L465.033 187.677L462.513 187.629C461.676 187.626 460.816 187.579 460.033 187.635C458.439 187.757 456.908 188.311 455.606 189.239C454.304 190.167 453.28 191.433 452.645 192.9C451.231 195.943 449.881 199.014 448.5 202.071C445.774 208.2 443.124 214.36 440.549 220.55C435.502 232.968 430.706 245.493 426.802 258.29L426.789 258.33C426.779 258.362 426.767 258.393 426.752 258.422C425.979 259.934 425.043 261.356 423.961 262.664C422.889 263.994 421.625 265.158 420.21 266.116C418.759 267.11 417.074 267.711 415.321 267.858C413.635 267.926 412.051 267.834 410.411 267.83L400.655 267.666L390.907 267.421C390.88 267.42 390.855 267.409 390.837 267.39C390.819 267.37 390.809 267.345 390.81 267.318C390.811 267.293 390.821 267.269 390.839 267.251C390.857 267.233 390.881 267.222 390.907 267.221L400.64 266.866L410.365 266.592C411.97 266.53 413.64 266.548 415.19 266.421C416.682 266.234 418.102 265.675 419.322 264.797C421.798 262.921 423.775 260.466 425.083 257.648L425.033 257.78C428.736 244.821 433.319 232.129 438.752 219.795C441.396 213.607 444.175 207.481 447.089 201.418C448.53 198.379 450.043 195.375 451.563 192.376C452.341 190.77 453.532 189.4 455.013 188.405C456.49 187.421 458.208 186.86 459.981 186.785C463.413 186.879 466.71 187.031 470.083 187.085C473.437 187.164 476.794 187.181 480.146 187.093C483.492 187.041 486.832 186.808 490.153 186.395C490.975 186.28 491.794 186.142 492.589 185.959C493.334 185.828 494.049 185.558 494.694 185.162C494.801 185.073 494.826 184.997 494.816 185.011C494.81 185.008 494.81 185.018 494.811 185.006L494.779 184.904C494.766 184.831 494.743 184.761 494.711 184.694C494.558 184.368 494.359 184.066 494.12 183.797C493.591 183.197 493.012 182.643 492.389 182.142C489.744 180.126 486.986 178.265 484.127 176.567C481.277 174.808 478.413 173.057 475.578 171.217C474.17 170.281 472.764 169.339 471.404 168.276C471.064 168.018 470.725 167.724 470.397 167.457L469.469 166.735C469.144 166.518 468.805 166.321 468.475 166.112C468.135 165.92 467.773 165.766 467.424 165.589C464.473 164.363 461.197 164.161 458.118 165.014L458.047 165.032C458.024 165.038 458 165.043 457.976 165.046C455.988 165.299 454.024 165.715 452.104 166.289C450.178 166.847 448.319 167.617 446.563 168.585C444.8 169.518 443.265 170.827 442.067 172.421C441.49 173.231 441.052 174.132 440.771 175.086C440.505 176.057 440.384 177.062 440.411 178.069C440.412 178.082 440.41 178.095 440.406 178.107C440.402 178.12 440.395 178.131 440.386 178.141C440.377 178.151 440.367 178.159 440.355 178.164C440.343 178.17 440.331 178.173 440.317 178.174C440.292 178.175 440.267 178.166 440.248 178.149C440.228 178.133 440.216 178.109 440.212 178.084Z" fill="#020202"/>
<path d="M371.748 233.221L381.849 221.29C382.684 220.293 383.513 219.292 384.323 218.281L385.521 216.763C385.899 216.294 386.243 215.798 386.55 215.28C387.59 212.853 388.832 210.517 390.265 208.299C393.142 203.747 397.088 199.967 401.759 197.289C404.109 195.961 406.635 194.971 409.261 194.347C411.907 193.69 414.641 193.46 417.36 193.666L416.585 193.925L422.606 188.233L422.623 188.217C422.745 188.101 422.9 188.026 423.066 188.003C428.038 187.198 433.112 187.265 438.061 188.2C440.531 188.706 442.908 189.587 445.109 190.813C447.328 191.989 449.21 193.71 450.581 195.814C449.04 193.895 447.069 192.367 444.827 191.353C442.614 190.337 440.269 189.64 437.86 189.281C433.028 188.634 428.122 188.772 423.333 189.69L423.793 189.461L417.902 195.286C417.809 195.379 417.697 195.45 417.574 195.495C417.452 195.541 417.32 195.559 417.19 195.55L417.127 195.545C414.636 195.402 412.139 195.641 409.721 196.254C404.805 197.482 400.296 199.975 396.642 203.484C394.795 205.23 393.141 207.17 391.709 209.269C390.265 211.398 388.983 213.633 387.875 215.955C387.506 216.551 387.089 217.115 386.628 217.644C386.206 218.154 385.78 218.653 385.343 219.142C384.472 220.121 383.589 221.084 382.7 222.041C380.931 223.962 379.105 225.825 377.281 227.69C375.458 229.555 373.624 231.408 371.748 233.221Z" fill="#020202"/>
<path d="M447.153 203.128L434.391 233.22C434.391 233.22 438.876 197.429 418.979 195.867L417.243 194.604L422.547 189.477C422.547 189.477 448.728 190.634 447.153 203.128Z" fill="#020202"/>
<path d="M264.013 113.258C264.493 121.445 264.853 129.633 265.093 137.823C265.359 146.013 265.515 154.205 265.649 162.396C265.749 170.588 265.824 178.781 265.79 186.975C265.783 195.169 265.654 203.364 265.403 211.561C264.921 203.375 264.56 195.186 264.321 186.996C264.055 178.806 263.899 170.615 263.767 162.423C263.67 154.231 263.594 146.038 263.629 137.844C263.637 129.65 263.765 121.455 264.013 113.258Z" fill="black"/>
</svg>
